<svg width="95" height="61" viewBox="0 0 95 61" fill="none" xmlns="http://www.w3.org/2000/svg">
<path d="M25.1562 18.625H29.1797C30.0443 18.625 30.7812 18.7552 31.3906 19.0156C32 19.276 32.4661 19.6615 32.7891 20.1719C33.1172 20.6771 33.2812 21.3021 33.2812 22.0469C33.2812 22.6146 33.1771 23.1146 32.9688 23.5469C32.7604 23.9792 32.4661 24.3438 32.0859 24.6406C31.7057 24.9323 31.2526 25.1589 30.7266 25.3203L30.1328 25.6094H26.5156L26.5 24.0547H29.2109C29.6797 24.0547 30.0703 23.9714 30.3828 23.8047C30.6953 23.638 30.9297 23.4115 31.0859 23.125C31.2474 22.8333 31.3281 22.5052 31.3281 22.1406C31.3281 21.7448 31.25 21.401 31.0938 21.1094C30.9427 20.8125 30.7083 20.5859 30.3906 20.4297C30.0729 20.2682 29.6693 20.1875 29.1797 20.1875H27.1172V30H25.1562V18.625ZM31.6484 30L28.9766 24.8906L31.0312 24.8828L33.7422 29.8984V30H31.6484ZM38.5734 30.1562C37.9484 30.1562 37.3833 30.0547 36.8781 29.8516C36.3781 29.6432 35.951 29.3542 35.5969 28.9844C35.2479 28.6146 34.9797 28.1797 34.7922 27.6797C34.6047 27.1797 34.5109 26.6406 34.5109 26.0625V25.75C34.5109 25.0885 34.6073 24.4896 34.8 23.9531C34.9927 23.4167 35.2609 22.9583 35.6047 22.5781C35.9484 22.1927 36.3547 21.8984 36.8234 21.6953C37.2922 21.4922 37.8 21.3906 38.3469 21.3906C38.951 21.3906 39.4797 21.4922 39.9328 21.6953C40.3859 21.8984 40.7609 22.1849 41.0578 22.5547C41.3599 22.9193 41.5839 23.3542 41.7297 23.8594C41.8807 24.3646 41.9563 24.9219 41.9563 25.5312V26.3359H35.425V24.9844H40.0969V24.8359C40.0865 24.4974 40.0188 24.1797 39.8938 23.8828C39.774 23.5859 39.5891 23.3464 39.3391 23.1641C39.0891 22.9818 38.7557 22.8906 38.3391 22.8906C38.0266 22.8906 37.7479 22.9583 37.5031 23.0938C37.2635 23.224 37.063 23.4141 36.9016 23.6641C36.7401 23.9141 36.6151 24.2161 36.5266 24.5703C36.4432 24.9193 36.4016 25.3125 36.4016 25.75V26.0625C36.4016 26.4323 36.451 26.776 36.55 27.0938C36.6542 27.4062 36.8052 27.6797 37.0031 27.9141C37.201 28.1484 37.4406 28.3333 37.7219 28.4688C38.0031 28.599 38.3234 28.6641 38.6828 28.6641C39.1359 28.6641 39.5396 28.5729 39.8938 28.3906C40.2479 28.2083 40.5552 27.9505 40.8156 27.6172L41.8078 28.5781C41.6255 28.8438 41.3885 29.099 41.0969 29.3438C40.8052 29.5833 40.4484 29.7786 40.0266 29.9297C39.6099 30.0807 39.1255 30.1562 38.5734 30.1562ZM45.8656 28.5078L47.9359 21.5469H49.8891L46.9516 30H45.7328L45.8656 28.5078ZM44.2797 21.5469L46.3891 28.5391L46.4906 30H45.2719L42.3188 21.5469H44.2797ZM52.8687 21.5469V30H50.9781V21.5469H52.8687ZM50.8531 19.3281C50.8531 19.0417 50.9469 18.8047 51.1344 18.6172C51.3271 18.4245 51.5927 18.3281 51.9312 18.3281C52.2646 18.3281 52.5276 18.4245 52.7203 18.6172C52.913 18.8047 53.0094 19.0417 53.0094 19.3281C53.0094 19.6094 52.913 19.8438 52.7203 20.0312C52.5276 20.2188 52.2646 20.3125 51.9312 20.3125C51.5927 20.3125 51.3271 20.2188 51.1344 20.0312C50.9469 19.8438 50.8531 19.6094 50.8531 19.3281ZM58.4578 30.1562C57.8328 30.1562 57.2677 30.0547 56.7625 29.8516C56.2625 29.6432 55.8354 29.3542 55.4813 28.9844C55.1323 28.6146 54.8641 28.1797 54.6766 27.6797C54.4891 27.1797 54.3953 26.6406 54.3953 26.0625V25.75C54.3953 25.0885 54.4917 24.4896 54.6844 23.9531C54.8771 23.4167 55.1453 22.9583 55.4891 22.5781C55.8328 22.1927 56.2391 21.8984 56.7078 21.6953C57.1766 21.4922 57.6844 21.3906 58.2313 21.3906C58.8354 21.3906 59.3641 21.4922 59.8172 21.6953C60.2703 21.8984 60.6453 22.1849 60.9422 22.5547C61.2443 22.9193 61.4682 23.3542 61.6141 23.8594C61.7651 24.3646 61.8406 24.9219 61.8406 25.5312V26.3359H55.3094V24.9844H59.9813V24.8359C59.9708 24.4974 59.9031 24.1797 59.7781 23.8828C59.6583 23.5859 59.4734 23.3464 59.2234 23.1641C58.9734 22.9818 58.6401 22.8906 58.2234 22.8906C57.9109 22.8906 57.6323 22.9583 57.3875 23.0938C57.1479 23.224 56.9474 23.4141 56.7859 23.6641C56.6245 23.9141 56.4995 24.2161 56.4109 24.5703C56.3276 24.9193 56.2859 25.3125 56.2859 25.75V26.0625C56.2859 26.4323 56.3354 26.776 56.4344 27.0938C56.5385 27.4062 56.6896 27.6797 56.8875 27.9141C57.0854 28.1484 57.325 28.3333 57.6063 28.4688C57.8875 28.599 58.2078 28.6641 58.5672 28.6641C59.0203 28.6641 59.424 28.5729 59.7781 28.3906C60.1323 28.2083 60.4396 27.9505 60.7 27.6172L61.6922 28.5781C61.5099 28.8438 61.2729 29.099 60.9813 29.3438C60.6896 29.5833 60.3328 29.7786 59.9109 29.9297C59.4943 30.0807 59.0099 30.1562 58.4578 30.1562ZM65.4062 28.125L67.3594 21.5469H68.5625L68.2344 23.5156L66.2656 30H65.1875L65.4062 28.125ZM64.2578 21.5469L65.7812 28.1562L65.9062 30H64.7031L62.4141 21.5469H64.2578ZM70.3906 28.0781L71.8672 21.5469H73.7031L71.4219 30H70.2188L70.3906 28.0781ZM68.7656 21.5469L70.6953 28.0469L70.9375 30H69.8594L67.8672 23.5078L67.5391 21.5469H68.7656ZM79.5266 27.7109C79.5266 27.5234 79.4797 27.3542 79.3859 27.2031C79.2922 27.0469 79.1125 26.9062 78.8469 26.7812C78.5865 26.6562 78.201 26.5417 77.6906 26.4375C77.2427 26.3385 76.8312 26.2214 76.4562 26.0859C76.0865 25.9453 75.7687 25.776 75.5031 25.5781C75.2375 25.3802 75.0318 25.1458 74.8859 24.875C74.7401 24.6042 74.6672 24.2917 74.6672 23.9375C74.6672 23.5938 74.7427 23.2682 74.8937 22.9609C75.0448 22.6536 75.2609 22.3828 75.5422 22.1484C75.8234 21.9141 76.1646 21.7292 76.5656 21.5938C76.9719 21.4583 77.425 21.3906 77.925 21.3906C78.6333 21.3906 79.2401 21.5104 79.7453 21.75C80.2557 21.9844 80.6464 22.3047 80.9172 22.7109C81.188 23.112 81.3234 23.5651 81.3234 24.0703H79.4406C79.4406 23.8464 79.3833 23.638 79.2687 23.4453C79.1594 23.2474 78.9927 23.0885 78.7687 22.9688C78.5448 22.8438 78.2635 22.7812 77.925 22.7812C77.6021 22.7812 77.3339 22.8333 77.1203 22.9375C76.912 23.0365 76.7557 23.1667 76.6516 23.3281C76.5526 23.4896 76.5031 23.6667 76.5031 23.8594C76.5031 24 76.5292 24.1276 76.5812 24.2422C76.6385 24.3516 76.7323 24.4531 76.8625 24.5469C76.9927 24.6354 77.1698 24.7188 77.3937 24.7969C77.6229 24.875 77.9094 24.9505 78.2531 25.0234C78.899 25.1589 79.4536 25.3333 79.9172 25.5469C80.3859 25.7552 80.7453 26.026 80.9953 26.3594C81.2453 26.6875 81.3703 27.1042 81.3703 27.6094C81.3703 27.9844 81.2896 28.3281 81.1281 28.6406C80.9719 28.9479 80.7427 29.2161 80.4406 29.4453C80.1385 29.6693 79.7766 29.8438 79.3547 29.9688C78.938 30.0938 78.4693 30.1562 77.9484 30.1562C77.1828 30.1562 76.5344 30.0208 76.0031 29.75C75.4719 29.474 75.0682 29.1224 74.7922 28.6953C74.5214 28.263 74.3859 27.8151 74.3859 27.3516H76.2062C76.2271 27.7005 76.3234 27.9792 76.4953 28.1875C76.6724 28.3906 76.8911 28.5391 77.1516 28.6328C77.4172 28.7214 77.6906 28.7656 77.9719 28.7656C78.3104 28.7656 78.5943 28.7214 78.8234 28.6328C79.0526 28.5391 79.2271 28.4141 79.3469 28.2578C79.4667 28.0964 79.5266 27.9141 79.5266 27.7109Z" fill="#7E7E82"/>
</svg>
