<svg width="233" height="41" viewBox="0 0 233 41" fill="none" xmlns="http://www.w3.org/2000/svg">
<rect x="-1" y="1" width="231" height="38" rx="5" transform="matrix(-1 0 0 1 231 0.374512)" fill="white" stroke="#B8FFEC" stroke-width="2"/>
<path d="M28.0615 20.8594H25.1631L25.1475 19.4297H27.6787C28.1058 19.4297 28.4678 19.3672 28.7646 19.2422C29.0667 19.112 29.2959 18.9271 29.4521 18.6875C29.6084 18.4427 29.6865 18.1484 29.6865 17.8047C29.6865 17.4245 29.6136 17.1146 29.4678 16.875C29.3219 16.6354 29.098 16.4609 28.7959 16.3516C28.499 16.2422 28.1188 16.1875 27.6553 16.1875H25.7568V26H23.7959V14.625H27.6553C28.2803 14.625 28.8376 14.6849 29.3271 14.8047C29.8219 14.9245 30.2412 15.112 30.585 15.3672C30.9339 15.6172 31.1969 15.9349 31.374 16.3203C31.5563 16.7057 31.6475 17.1641 31.6475 17.6953C31.6475 18.1641 31.5355 18.5938 31.3115 18.9844C31.0876 19.3698 30.7568 19.6849 30.3193 19.9297C29.8818 20.1745 29.3376 20.3203 28.6865 20.3672L28.0615 20.8594ZM27.9756 26H24.5459L25.4287 24.4453H27.9756C28.4183 24.4453 28.7881 24.3724 29.085 24.2266C29.3818 24.0755 29.6032 23.8698 29.749 23.6094C29.9001 23.3438 29.9756 23.0339 29.9756 22.6797C29.9756 22.3099 29.9105 21.9896 29.7803 21.7188C29.6501 21.4427 29.4443 21.2318 29.1631 21.0859C28.8818 20.9349 28.5146 20.8594 28.0615 20.8594H25.8584L25.874 19.4297H28.7412L29.1865 19.9688C29.8115 19.9896 30.3245 20.1276 30.7256 20.3828C31.1318 20.638 31.4339 20.9688 31.6318 21.375C31.8298 21.7812 31.9287 22.2188 31.9287 22.6875C31.9287 23.4115 31.7699 24.0182 31.4521 24.5078C31.1396 24.9974 30.6891 25.3698 30.1006 25.625C29.512 25.875 28.8037 26 27.9756 26ZM35.4084 19.1562V26H33.5256V17.5469H35.3225L35.4084 19.1562ZM37.9943 17.4922L37.9787 19.2422C37.8641 19.2214 37.7391 19.2057 37.6037 19.1953C37.4735 19.1849 37.3433 19.1797 37.2131 19.1797C36.8902 19.1797 36.6063 19.2266 36.3615 19.3203C36.1167 19.4089 35.911 19.5391 35.7443 19.7109C35.5829 19.8776 35.4579 20.0807 35.3693 20.3203C35.2808 20.5599 35.2287 20.8281 35.2131 21.125L34.7834 21.1562C34.7834 20.625 34.8355 20.1328 34.9396 19.6797C35.0438 19.2266 35.2001 18.8281 35.4084 18.4844C35.6219 18.1406 35.8876 17.8724 36.2053 17.6797C36.5282 17.487 36.9006 17.3906 37.3225 17.3906C37.437 17.3906 37.5594 17.401 37.6896 17.4219C37.8251 17.4427 37.9266 17.4661 37.9943 17.4922ZM43.4584 24.3047V20.2734C43.4584 19.9714 43.4037 19.7109 43.2943 19.4922C43.185 19.2734 43.0183 19.1042 42.7943 18.9844C42.5756 18.8646 42.2995 18.8047 41.9662 18.8047C41.6589 18.8047 41.3933 18.8568 41.1693 18.9609C40.9454 19.0651 40.7709 19.2057 40.6459 19.3828C40.5209 19.5599 40.4584 19.7604 40.4584 19.9844H38.5834C38.5834 19.651 38.6641 19.3281 38.8256 19.0156C38.987 18.7031 39.2214 18.4245 39.5287 18.1797C39.836 17.9349 40.2032 17.7422 40.6303 17.6016C41.0574 17.4609 41.5365 17.3906 42.0678 17.3906C42.7032 17.3906 43.2657 17.4974 43.7553 17.7109C44.2501 17.9245 44.6381 18.2474 44.9193 18.6797C45.2058 19.1068 45.349 19.6432 45.349 20.2891V24.0469C45.349 24.4323 45.3751 24.7786 45.4271 25.0859C45.4844 25.388 45.5652 25.651 45.6693 25.875V26H43.7396C43.6511 25.7969 43.5808 25.5391 43.5287 25.2266C43.4818 24.9089 43.4584 24.6016 43.4584 24.3047ZM43.7318 20.8594L43.7475 22.0234H42.3959C42.0469 22.0234 41.7396 22.0573 41.474 22.125C41.2084 22.1875 40.987 22.2812 40.81 22.4062C40.6329 22.5312 40.5001 22.6823 40.4115 22.8594C40.323 23.0365 40.2787 23.237 40.2787 23.4609C40.2787 23.6849 40.3308 23.8906 40.435 24.0781C40.5391 24.2604 40.6902 24.4036 40.8881 24.5078C41.0912 24.612 41.336 24.6641 41.6225 24.6641C42.0079 24.6641 42.3438 24.5859 42.6303 24.4297C42.9219 24.2682 43.1511 24.0729 43.3178 23.8438C43.4844 23.6094 43.573 23.388 43.5834 23.1797L44.1928 24.0156C44.1303 24.2292 44.0235 24.4583 43.8725 24.7031C43.7214 24.9479 43.5235 25.1823 43.2787 25.4062C43.0391 25.625 42.7501 25.8047 42.4115 25.9453C42.0782 26.0859 41.6928 26.1562 41.2553 26.1562C40.7032 26.1562 40.211 26.0469 39.7787 25.8281C39.3464 25.6042 39.0079 25.3047 38.7631 24.9297C38.5183 24.5495 38.3959 24.1198 38.3959 23.6406C38.3959 23.1927 38.4792 22.7969 38.6459 22.4531C38.8178 22.1042 39.0678 21.8125 39.3959 21.5781C39.7292 21.3438 40.1355 21.1667 40.6146 21.0469C41.0938 20.9219 41.6407 20.8594 42.2553 20.8594H43.7318ZM48.985 19.3516V26H47.1021V17.5469H48.8756L48.985 19.3516ZM48.649 21.4609L48.0396 21.4531C48.0449 20.8542 48.1282 20.3047 48.2896 19.8047C48.4563 19.3047 48.6855 18.875 48.9771 18.5156C49.274 18.1562 49.6282 17.8802 50.0396 17.6875C50.4511 17.4896 50.9094 17.3906 51.4146 17.3906C51.8209 17.3906 52.1881 17.4479 52.5162 17.5625C52.8495 17.6719 53.1334 17.8516 53.3678 18.1016C53.6074 18.3516 53.7896 18.6771 53.9146 19.0781C54.0396 19.474 54.1021 19.9609 54.1021 20.5391V26H52.2115V20.5312C52.2115 20.125 52.1516 19.8047 52.0318 19.5703C51.9173 19.3307 51.748 19.1615 51.524 19.0625C51.3053 18.9583 51.0318 18.9062 50.7037 18.9062C50.3808 18.9062 50.0917 18.974 49.8365 19.1094C49.5813 19.2448 49.3652 19.4297 49.1881 19.6641C49.0162 19.8984 48.8834 20.1693 48.7896 20.4766C48.6959 20.7839 48.649 21.112 48.649 21.4609ZM60.9803 24.25V14H62.8709V26H61.16L60.9803 24.25ZM55.4803 21.8672V21.7031C55.4803 21.0625 55.5558 20.4792 55.7068 19.9531C55.8579 19.4219 56.0766 18.9661 56.3631 18.5859C56.6495 18.2005 56.9985 17.9062 57.41 17.7031C57.8214 17.4948 58.285 17.3906 58.8006 17.3906C59.311 17.3906 59.7589 17.4896 60.1443 17.6875C60.5298 17.8854 60.8579 18.1693 61.1287 18.5391C61.3995 18.9036 61.6157 19.3411 61.7771 19.8516C61.9386 20.3568 62.0532 20.9193 62.1209 21.5391V22.0625C62.0532 22.6667 61.9386 23.2188 61.7771 23.7188C61.6157 24.2188 61.3995 24.651 61.1287 25.0156C60.8579 25.3802 60.5271 25.6615 60.1365 25.8594C59.7511 26.0573 59.3006 26.1562 58.785 26.1562C58.2745 26.1562 57.8136 26.0495 57.4021 25.8359C56.9959 25.6224 56.6495 25.3229 56.3631 24.9375C56.0766 24.5521 55.8579 24.099 55.7068 23.5781C55.5558 23.0521 55.4803 22.4818 55.4803 21.8672ZM57.3631 21.7031V21.8672C57.3631 22.2526 57.3969 22.612 57.4646 22.9453C57.5376 23.2786 57.6495 23.5729 57.8006 23.8281C57.9516 24.0781 58.1469 24.276 58.3865 24.4219C58.6313 24.5625 58.923 24.6328 59.2615 24.6328C59.6886 24.6328 60.0402 24.5391 60.3162 24.3516C60.5923 24.1641 60.8084 23.9115 60.9646 23.5938C61.1261 23.2708 61.2355 22.9115 61.2928 22.5156V21.1016C61.2615 20.7943 61.1964 20.5078 61.0975 20.2422C61.0037 19.9766 60.8761 19.7448 60.7146 19.5469C60.5532 19.3438 60.3527 19.1875 60.1131 19.0781C59.8787 18.9635 59.6001 18.9062 59.2771 18.9062C58.9334 18.9062 58.6417 18.9792 58.4021 19.125C58.1626 19.2708 57.9646 19.4714 57.8084 19.7266C57.6574 19.9818 57.5454 20.2786 57.4725 20.6172C57.3995 20.9557 57.3631 21.3177 57.3631 21.7031ZM69.3818 23.7109C69.3818 23.5234 69.335 23.3542 69.2412 23.2031C69.1475 23.0469 68.9678 22.9062 68.7021 22.7812C68.4417 22.6562 68.0563 22.5417 67.5459 22.4375C67.098 22.3385 66.6865 22.2214 66.3115 22.0859C65.9417 21.9453 65.624 21.776 65.3584 21.5781C65.0928 21.3802 64.887 21.1458 64.7412 20.875C64.5954 20.6042 64.5225 20.2917 64.5225 19.9375C64.5225 19.5938 64.598 19.2682 64.749 18.9609C64.9001 18.6536 65.1162 18.3828 65.3975 18.1484C65.6787 17.9141 66.0199 17.7292 66.4209 17.5938C66.8271 17.4583 67.2803 17.3906 67.7803 17.3906C68.4886 17.3906 69.0954 17.5104 69.6006 17.75C70.111 17.9844 70.5016 18.3047 70.7725 18.7109C71.0433 19.112 71.1787 19.5651 71.1787 20.0703H69.2959C69.2959 19.8464 69.2386 19.638 69.124 19.4453C69.0146 19.2474 68.848 19.0885 68.624 18.9688C68.4001 18.8438 68.1188 18.7812 67.7803 18.7812C67.4574 18.7812 67.1891 18.8333 66.9756 18.9375C66.7673 19.0365 66.611 19.1667 66.5068 19.3281C66.4079 19.4896 66.3584 19.6667 66.3584 19.8594C66.3584 20 66.3844 20.1276 66.4365 20.2422C66.4938 20.3516 66.5876 20.4531 66.7178 20.5469C66.848 20.6354 67.0251 20.7188 67.249 20.7969C67.4782 20.875 67.7646 20.9505 68.1084 21.0234C68.7542 21.1589 69.3089 21.3333 69.7725 21.5469C70.2412 21.7552 70.6006 22.026 70.8506 22.3594C71.1006 22.6875 71.2256 23.1042 71.2256 23.6094C71.2256 23.9844 71.1449 24.3281 70.9834 24.6406C70.8271 24.9479 70.598 25.2161 70.2959 25.4453C69.9938 25.6693 69.6318 25.8438 69.21 25.9688C68.7933 26.0938 68.3245 26.1562 67.8037 26.1562C67.0381 26.1562 66.3896 26.0208 65.8584 25.75C65.3271 25.474 64.9235 25.1224 64.6475 24.6953C64.3766 24.263 64.2412 23.8151 64.2412 23.3516H66.0615C66.0824 23.7005 66.1787 23.9792 66.3506 24.1875C66.5277 24.3906 66.7464 24.5391 67.0068 24.6328C67.2725 24.7214 67.5459 24.7656 67.8271 24.7656C68.1657 24.7656 68.4495 24.7214 68.6787 24.6328C68.9079 24.5391 69.0824 24.4141 69.2021 24.2578C69.3219 24.0964 69.3818 23.9141 69.3818 23.7109ZM79.4975 23.4453L81.7631 14.625H82.9506L82.8178 16.8984L80.3959 26H79.1615L79.4975 23.4453ZM77.8021 14.625L79.6381 23.375L79.8021 26H78.4896L75.8568 14.625H77.8021ZM85.5209 23.3516L87.3334 14.625H89.2865L86.6537 26H85.3412L85.5209 23.3516ZM83.4115 14.625L85.6537 23.4688L85.9818 26H84.7475L82.3646 16.8984L82.2396 14.625H83.4115ZM93.8287 26.1562C93.2037 26.1562 92.6386 26.0547 92.1334 25.8516C91.6334 25.6432 91.2063 25.3542 90.8521 24.9844C90.5032 24.6146 90.235 24.1797 90.0475 23.6797C89.86 23.1797 89.7662 22.6406 89.7662 22.0625V21.75C89.7662 21.0885 89.8626 20.4896 90.0553 19.9531C90.248 19.4167 90.5162 18.9583 90.86 18.5781C91.2037 18.1927 91.61 17.8984 92.0787 17.6953C92.5475 17.4922 93.0553 17.3906 93.6021 17.3906C94.2063 17.3906 94.735 17.4922 95.1881 17.6953C95.6412 17.8984 96.0162 18.1849 96.3131 18.5547C96.6152 18.9193 96.8391 19.3542 96.985 19.8594C97.136 20.3646 97.2115 20.9219 97.2115 21.5312V22.3359H90.6803V20.9844H95.3521V20.8359C95.3417 20.4974 95.274 20.1797 95.149 19.8828C95.0292 19.5859 94.8443 19.3464 94.5943 19.1641C94.3443 18.9818 94.011 18.8906 93.5943 18.8906C93.2818 18.8906 93.0032 18.9583 92.7584 19.0938C92.5188 19.224 92.3183 19.4141 92.1568 19.6641C91.9954 19.9141 91.8704 20.2161 91.7818 20.5703C91.6985 20.9193 91.6568 21.3125 91.6568 21.75V22.0625C91.6568 22.4323 91.7063 22.776 91.8053 23.0938C91.9094 23.4062 92.0605 23.6797 92.2584 23.9141C92.4563 24.1484 92.6959 24.3333 92.9771 24.4688C93.2584 24.599 93.5787 24.6641 93.9381 24.6641C94.3912 24.6641 94.7949 24.5729 95.149 24.3906C95.5032 24.2083 95.8105 23.9505 96.0709 23.6172L97.0631 24.5781C96.8808 24.8438 96.6438 25.099 96.3521 25.3438C96.0605 25.5833 95.7037 25.7786 95.2818 25.9297C94.8652 26.0807 94.3808 26.1562 93.8287 26.1562ZM102.452 14.625H106.476C107.34 14.625 108.077 14.7552 108.687 15.0156C109.296 15.276 109.762 15.6615 110.085 16.1719C110.413 16.6771 110.577 17.3021 110.577 18.0469C110.577 18.6146 110.473 19.1146 110.265 19.5469C110.056 19.9792 109.762 20.3438 109.382 20.6406C109.002 20.9323 108.549 21.1589 108.022 21.3203L107.429 21.6094H103.812L103.796 20.0547H106.507C106.976 20.0547 107.366 19.9714 107.679 19.8047C107.991 19.638 108.226 19.4115 108.382 19.125C108.543 18.8333 108.624 18.5052 108.624 18.1406C108.624 17.7448 108.546 17.401 108.39 17.1094C108.239 16.8125 108.004 16.5859 107.687 16.4297C107.369 16.2682 106.965 16.1875 106.476 16.1875H104.413V26H102.452V14.625ZM108.944 26L106.272 20.8906L108.327 20.8828L111.038 25.8984V26H108.944ZM115.869 26.1562C115.244 26.1562 114.679 26.0547 114.174 25.8516C113.674 25.6432 113.247 25.3542 112.893 24.9844C112.544 24.6146 112.276 24.1797 112.088 23.6797C111.901 23.1797 111.807 22.6406 111.807 22.0625V21.75C111.807 21.0885 111.903 20.4896 112.096 19.9531C112.289 19.4167 112.557 18.9583 112.901 18.5781C113.244 18.1927 113.651 17.8984 114.119 17.6953C114.588 17.4922 115.096 17.3906 115.643 17.3906C116.247 17.3906 116.776 17.4922 117.229 17.6953C117.682 17.8984 118.057 18.1849 118.354 18.5547C118.656 18.9193 118.88 19.3542 119.026 19.8594C119.177 20.3646 119.252 20.9219 119.252 21.5312V22.3359H112.721V20.9844H117.393V20.8359C117.382 20.4974 117.315 20.1797 117.19 19.8828C117.07 19.5859 116.885 19.3464 116.635 19.1641C116.385 18.9818 116.052 18.8906 115.635 18.8906C115.322 18.8906 115.044 18.9583 114.799 19.0938C114.559 19.224 114.359 19.4141 114.197 19.6641C114.036 19.9141 113.911 20.2161 113.822 20.5703C113.739 20.9193 113.697 21.3125 113.697 21.75V22.0625C113.697 22.4323 113.747 22.776 113.846 23.0938C113.95 23.4062 114.101 23.6797 114.299 23.9141C114.497 24.1484 114.737 24.3333 115.018 24.4688C115.299 24.599 115.619 24.6641 115.979 24.6641C116.432 24.6641 116.835 24.5729 117.19 24.3906C117.544 24.2083 117.851 23.9505 118.112 23.6172L119.104 24.5781C118.921 24.8438 118.684 25.099 118.393 25.3438C118.101 25.5833 117.744 25.7786 117.322 25.9297C116.906 26.0807 116.421 26.1562 115.869 26.1562ZM122.412 19.1719V29.25H120.529V17.5469H122.263L122.412 19.1719ZM127.919 21.6953V21.8594C127.919 22.474 127.846 23.0443 127.701 23.5703C127.56 24.0911 127.349 24.5469 127.068 24.9375C126.792 25.3229 126.451 25.6224 126.044 25.8359C125.638 26.0495 125.169 26.1562 124.638 26.1562C124.112 26.1562 123.651 26.0599 123.255 25.8672C122.865 25.6693 122.534 25.3906 122.263 25.0312C121.992 24.6719 121.774 24.25 121.607 23.7656C121.445 23.276 121.331 22.7396 121.263 22.1562V21.5234C121.331 20.9036 121.445 20.3411 121.607 19.8359C121.774 19.3307 121.992 18.8958 122.263 18.5312C122.534 18.1667 122.865 17.8854 123.255 17.6875C123.646 17.4896 124.102 17.3906 124.622 17.3906C125.154 17.3906 125.625 17.4948 126.037 17.7031C126.448 17.9062 126.794 18.1979 127.076 18.5781C127.357 18.9531 127.568 19.4062 127.708 19.9375C127.849 20.4635 127.919 21.0495 127.919 21.6953ZM126.037 21.8594V21.6953C126.037 21.3047 126 20.9427 125.927 20.6094C125.854 20.2708 125.74 19.974 125.583 19.7188C125.427 19.4635 125.227 19.2656 124.982 19.125C124.742 18.9792 124.453 18.9062 124.115 18.9062C123.781 18.9062 123.495 18.9635 123.255 19.0781C123.016 19.1875 122.815 19.3411 122.654 19.5391C122.492 19.737 122.367 19.9688 122.279 20.2344C122.19 20.4948 122.128 20.7786 122.091 21.0859V22.6016C122.154 22.9766 122.26 23.3203 122.412 23.6328C122.563 23.9453 122.776 24.1953 123.052 24.3828C123.333 24.5651 123.693 24.6562 124.13 24.6562C124.469 24.6562 124.758 24.5833 124.997 24.4375C125.237 24.2917 125.432 24.0911 125.583 23.8359C125.74 23.5755 125.854 23.276 125.927 22.9375C126 22.599 126.037 22.2396 126.037 21.8594ZM134.087 24.3047V20.2734C134.087 19.9714 134.032 19.7109 133.922 19.4922C133.813 19.2734 133.646 19.1042 133.422 18.9844C133.204 18.8646 132.928 18.8047 132.594 18.8047C132.287 18.8047 132.021 18.8568 131.797 18.9609C131.574 19.0651 131.399 19.2057 131.274 19.3828C131.149 19.5599 131.087 19.7604 131.087 19.9844H129.212C129.212 19.651 129.292 19.3281 129.454 19.0156C129.615 18.7031 129.85 18.4245 130.157 18.1797C130.464 17.9349 130.831 17.7422 131.258 17.6016C131.685 17.4609 132.165 17.3906 132.696 17.3906C133.331 17.3906 133.894 17.4974 134.383 17.7109C134.878 17.9245 135.266 18.2474 135.547 18.6797C135.834 19.1068 135.977 19.6432 135.977 20.2891V24.0469C135.977 24.4323 136.003 24.7786 136.055 25.0859C136.113 25.388 136.193 25.651 136.297 25.875V26H134.368C134.279 25.7969 134.209 25.5391 134.157 25.2266C134.11 24.9089 134.087 24.6016 134.087 24.3047ZM134.36 20.8594L134.376 22.0234H133.024C132.675 22.0234 132.368 22.0573 132.102 22.125C131.837 22.1875 131.615 22.2812 131.438 22.4062C131.261 22.5312 131.128 22.6823 131.04 22.8594C130.951 23.0365 130.907 23.237 130.907 23.4609C130.907 23.6849 130.959 23.8906 131.063 24.0781C131.167 24.2604 131.318 24.4036 131.516 24.5078C131.719 24.612 131.964 24.6641 132.251 24.6641C132.636 24.6641 132.972 24.5859 133.258 24.4297C133.55 24.2682 133.779 24.0729 133.946 23.8438C134.113 23.6094 134.201 23.388 134.212 23.1797L134.821 24.0156C134.758 24.2292 134.652 24.4583 134.501 24.7031C134.35 24.9479 134.152 25.1823 133.907 25.4062C133.667 25.625 133.378 25.8047 133.04 25.9453C132.706 26.0859 132.321 26.1562 131.883 26.1562C131.331 26.1562 130.839 26.0469 130.407 25.8281C129.975 25.6042 129.636 25.3047 129.391 24.9297C129.146 24.5495 129.024 24.1198 129.024 23.6406C129.024 23.1927 129.107 22.7969 129.274 22.4531C129.446 22.1042 129.696 21.8125 130.024 21.5781C130.357 21.3438 130.764 21.1667 131.243 21.0469C131.722 20.9219 132.269 20.8594 132.883 20.8594H134.36ZM139.762 17.5469V26H137.871V17.5469H139.762ZM137.746 15.3281C137.746 15.0417 137.84 14.8047 138.027 14.6172C138.22 14.4245 138.485 14.3281 138.824 14.3281C139.157 14.3281 139.42 14.4245 139.613 14.6172C139.806 14.8047 139.902 15.0417 139.902 15.3281C139.902 15.6094 139.806 15.8438 139.613 16.0312C139.42 16.2188 139.157 16.3125 138.824 16.3125C138.485 16.3125 138.22 16.2188 138.027 16.0312C137.84 15.8438 137.746 15.6094 137.746 15.3281ZM143.515 19.1562V26H141.632V17.5469H143.429L143.515 19.1562ZM146.101 17.4922L146.085 19.2422C145.97 19.2214 145.845 19.2057 145.71 19.1953C145.58 19.1849 145.45 19.1797 145.319 19.1797C144.996 19.1797 144.713 19.2266 144.468 19.3203C144.223 19.4089 144.017 19.5391 143.851 19.7109C143.689 19.8776 143.564 20.0807 143.476 20.3203C143.387 20.5599 143.335 20.8281 143.319 21.125L142.89 21.1562C142.89 20.625 142.942 20.1328 143.046 19.6797C143.15 19.2266 143.306 18.8281 143.515 18.4844C143.728 18.1406 143.994 17.8724 144.312 17.6797C144.634 17.487 145.007 17.3906 145.429 17.3906C145.543 17.3906 145.666 17.401 145.796 17.4219C145.931 17.4427 146.033 17.4661 146.101 17.4922Z" fill="#7E7E82"/>
</svg>
