<svg width="108" height="24" viewBox="0 0 108 24" fill="none" xmlns="http://www.w3.org/2000/svg">
<path d="M33.1562 5.625H37.1797C38.0443 5.625 38.7812 5.75521 39.3906 6.01562C40 6.27604 40.4661 6.66146 40.7891 7.17188C41.1172 7.67708 41.2812 8.30208 41.2812 9.04688C41.2812 9.61458 41.1771 10.1146 40.9688 10.5469C40.7604 10.9792 40.4661 11.3438 40.0859 11.6406C39.7057 11.9323 39.2526 12.1589 38.7266 12.3203L38.1328 12.6094H34.5156L34.5 11.0547H37.2109C37.6797 11.0547 38.0703 10.9714 38.3828 10.8047C38.6953 10.638 38.9297 10.4115 39.0859 10.125C39.2474 9.83333 39.3281 9.50521 39.3281 9.14062C39.3281 8.74479 39.25 8.40104 39.0938 8.10938C38.9427 7.8125 38.7083 7.58594 38.3906 7.42969C38.0729 7.26823 37.6693 7.1875 37.1797 7.1875H35.1172V17H33.1562V5.625ZM39.6484 17L36.9766 11.8906L39.0312 11.8828L41.7422 16.8984V17H39.6484ZM46.5734 17.1562C45.9484 17.1562 45.3833 17.0547 44.8781 16.8516C44.3781 16.6432 43.951 16.3542 43.5969 15.9844C43.2479 15.6146 42.9797 15.1797 42.7922 14.6797C42.6047 14.1797 42.5109 13.6406 42.5109 13.0625V12.75C42.5109 12.0885 42.6073 11.4896 42.8 10.9531C42.9927 10.4167 43.2609 9.95833 43.6047 9.57812C43.9484 9.19271 44.3547 8.89844 44.8234 8.69531C45.2922 8.49219 45.8 8.39062 46.3469 8.39062C46.951 8.39062 47.4797 8.49219 47.9328 8.69531C48.3859 8.89844 48.7609 9.1849 49.0578 9.55469C49.3599 9.91927 49.5839 10.3542 49.7297 10.8594C49.8807 11.3646 49.9563 11.9219 49.9563 12.5312V13.3359H43.425V11.9844H48.0969V11.8359C48.0865 11.4974 48.0188 11.1797 47.8938 10.8828C47.774 10.5859 47.5891 10.3464 47.3391 10.1641C47.0891 9.98177 46.7557 9.89062 46.3391 9.89062C46.0266 9.89062 45.7479 9.95833 45.5031 10.0938C45.2635 10.224 45.063 10.4141 44.9016 10.6641C44.7401 10.9141 44.6151 11.2161 44.5266 11.5703C44.4432 11.9193 44.4016 12.3125 44.4016 12.75V13.0625C44.4016 13.4323 44.451 13.776 44.55 14.0938C44.6542 14.4062 44.8052 14.6797 45.0031 14.9141C45.201 15.1484 45.4406 15.3333 45.7219 15.4688C46.0031 15.599 46.3234 15.6641 46.6828 15.6641C47.1359 15.6641 47.5396 15.5729 47.8938 15.3906C48.2479 15.2083 48.5552 14.9505 48.8156 14.6172L49.8078 15.5781C49.6255 15.8438 49.3885 16.099 49.0969 16.3438C48.8052 16.5833 48.4484 16.7786 48.0266 16.9297C47.6099 17.0807 47.1255 17.1562 46.5734 17.1562ZM55.9906 15.3047V11.2734C55.9906 10.9714 55.9359 10.7109 55.8266 10.4922C55.7172 10.2734 55.5505 10.1042 55.3266 9.98438C55.1078 9.86458 54.8318 9.80469 54.4984 9.80469C54.1911 9.80469 53.9255 9.85677 53.7016 9.96094C53.4776 10.0651 53.3031 10.2057 53.1781 10.3828C53.0531 10.5599 52.9906 10.7604 52.9906 10.9844H51.1156C51.1156 10.651 51.1964 10.3281 51.3578 10.0156C51.5193 9.70312 51.7536 9.42448 52.0609 9.17969C52.3682 8.9349 52.7354 8.74219 53.1625 8.60156C53.5896 8.46094 54.0688 8.39062 54.6 8.39062C55.2354 8.39062 55.7979 8.4974 56.2875 8.71094C56.7823 8.92448 57.1703 9.2474 57.4516 9.67969C57.738 10.1068 57.8813 10.6432 57.8813 11.2891V15.0469C57.8813 15.4323 57.9073 15.7786 57.9594 16.0859C58.0167 16.388 58.0974 16.651 58.2016 16.875V17H56.2719C56.1833 16.7969 56.113 16.5391 56.0609 16.2266C56.0141 15.9089 55.9906 15.6016 55.9906 15.3047ZM56.2641 11.8594L56.2797 13.0234H54.9281C54.5792 13.0234 54.2719 13.0573 54.0063 13.125C53.7406 13.1875 53.5193 13.2812 53.3422 13.4062C53.1651 13.5312 53.0323 13.6823 52.9438 13.8594C52.8552 14.0365 52.8109 14.237 52.8109 14.4609C52.8109 14.6849 52.863 14.8906 52.9672 15.0781C53.0714 15.2604 53.2224 15.4036 53.4203 15.5078C53.6234 15.612 53.8682 15.6641 54.1547 15.6641C54.5401 15.6641 54.876 15.5859 55.1625 15.4297C55.4542 15.2682 55.6833 15.0729 55.85 14.8438C56.0167 14.6094 56.1052 14.388 56.1156 14.1797L56.725 15.0156C56.6625 15.2292 56.5557 15.4583 56.4047 15.7031C56.2536 15.9479 56.0557 16.1823 55.8109 16.4062C55.5714 16.625 55.2823 16.8047 54.9438 16.9453C54.6104 17.0859 54.225 17.1562 53.7875 17.1562C53.2354 17.1562 52.7432 17.0469 52.3109 16.8281C51.8786 16.6042 51.5401 16.3047 51.2953 15.9297C51.0505 15.5495 50.9281 15.1198 50.9281 14.6406C50.9281 14.1927 51.0115 13.7969 51.1781 13.4531C51.35 13.1042 51.6 12.8125 51.9281 12.5781C52.2615 12.3438 52.6677 12.1667 53.1469 12.0469C53.626 11.9219 54.1729 11.8594 54.7875 11.8594H56.2641ZM64.8062 15.25V5H66.6969V17H64.9859L64.8062 15.25ZM59.3062 12.8672V12.7031C59.3062 12.0625 59.3818 11.4792 59.5328 10.9531C59.6839 10.4219 59.9026 9.96615 60.1891 9.58594C60.4755 9.20052 60.8245 8.90625 61.2359 8.70312C61.6474 8.49479 62.1109 8.39062 62.6266 8.39062C63.137 8.39062 63.5849 8.48958 63.9703 8.6875C64.3557 8.88542 64.6839 9.16927 64.9547 9.53906C65.2255 9.90365 65.4417 10.3411 65.6031 10.8516C65.7646 11.3568 65.8792 11.9193 65.9469 12.5391V13.0625C65.8792 13.6667 65.7646 14.2188 65.6031 14.7188C65.4417 15.2188 65.2255 15.651 64.9547 16.0156C64.6839 16.3802 64.3531 16.6615 63.9625 16.8594C63.5771 17.0573 63.1266 17.1562 62.6109 17.1562C62.1005 17.1562 61.6396 17.0495 61.2281 16.8359C60.8219 16.6224 60.4755 16.3229 60.1891 15.9375C59.9026 15.5521 59.6839 15.099 59.5328 14.5781C59.3818 14.0521 59.3062 13.4818 59.3062 12.8672ZM61.1891 12.7031V12.8672C61.1891 13.2526 61.2229 13.612 61.2906 13.9453C61.3635 14.2786 61.4755 14.5729 61.6266 14.8281C61.7776 15.0781 61.9729 15.276 62.2125 15.4219C62.4573 15.5625 62.749 15.6328 63.0875 15.6328C63.5146 15.6328 63.8661 15.5391 64.1422 15.3516C64.4182 15.1641 64.6344 14.9115 64.7906 14.5938C64.9521 14.2708 65.0615 13.9115 65.1187 13.5156V12.1016C65.0875 11.7943 65.0224 11.5078 64.9234 11.2422C64.8297 10.9766 64.7021 10.7448 64.5406 10.5469C64.3792 10.3438 64.1786 10.1875 63.9391 10.0781C63.7047 9.96354 63.426 9.90625 63.1031 9.90625C62.7594 9.90625 62.4677 9.97917 62.2281 10.125C61.9885 10.2708 61.7906 10.4714 61.6344 10.7266C61.4833 10.9818 61.3714 11.2786 61.2984 11.6172C61.2255 11.9557 61.1891 12.3177 61.1891 12.7031ZM74.1328 10.2656V17H72.25V8.54688H74.0234L74.1328 10.2656ZM73.8281 12.4609L73.1875 12.4531C73.1875 11.8698 73.2604 11.3307 73.4062 10.8359C73.5521 10.3411 73.7656 9.91146 74.0469 9.54688C74.3281 9.17708 74.6771 8.89323 75.0938 8.69531C75.5156 8.49219 76.0026 8.39062 76.5547 8.39062C76.9401 8.39062 77.2917 8.44792 77.6094 8.5625C77.9323 8.67188 78.2109 8.84635 78.4453 9.08594C78.6849 9.32552 78.8672 9.63281 78.9922 10.0078C79.1224 10.3828 79.1875 10.8359 79.1875 11.3672V17H77.3047V11.5312C77.3047 11.1198 77.2422 10.7969 77.1172 10.5625C76.9974 10.3281 76.8229 10.1615 76.5938 10.0625C76.3698 9.95833 76.1016 9.90625 75.7891 9.90625C75.4349 9.90625 75.1328 9.97396 74.8828 10.1094C74.638 10.2448 74.4375 10.4297 74.2812 10.6641C74.125 10.8984 74.0104 11.1693 73.9375 11.4766C73.8646 11.7839 73.8281 12.112 73.8281 12.4609ZM79.0703 11.9609L78.1875 12.1562C78.1875 11.6458 78.2578 11.1641 78.3984 10.7109C78.5443 10.2526 78.7552 9.85156 79.0312 9.50781C79.3125 9.15885 79.6589 8.88542 80.0703 8.6875C80.4818 8.48958 80.9531 8.39062 81.4844 8.39062C81.9167 8.39062 82.3021 8.45052 82.6406 8.57031C82.9844 8.6849 83.276 8.86719 83.5156 9.11719C83.7552 9.36719 83.9375 9.69271 84.0625 10.0938C84.1875 10.4896 84.25 10.9688 84.25 11.5312V17H82.3594V11.5234C82.3594 11.0964 82.2969 10.7656 82.1719 10.5312C82.0521 10.2969 81.8802 10.1354 81.6562 10.0469C81.4323 9.95312 81.1641 9.90625 80.8516 9.90625C80.5599 9.90625 80.3021 9.96094 80.0781 10.0703C79.8594 10.1745 79.6745 10.3229 79.5234 10.5156C79.3724 10.7031 79.2578 10.9193 79.1797 11.1641C79.1068 11.4089 79.0703 11.6745 79.0703 11.9609ZM85.6281 12.8672V12.6875C85.6281 12.0781 85.7167 11.513 85.8937 10.9922C86.0708 10.4661 86.326 10.0104 86.6594 9.625C86.9979 9.23438 87.4094 8.93229 87.8937 8.71875C88.3833 8.5 88.9354 8.39062 89.55 8.39062C90.1698 8.39062 90.7219 8.5 91.2062 8.71875C91.6958 8.93229 92.1099 9.23438 92.4484 9.625C92.787 10.0104 93.0448 10.4661 93.2219 10.9922C93.399 11.513 93.4875 12.0781 93.4875 12.6875V12.8672C93.4875 13.4766 93.399 14.0417 93.2219 14.5625C93.0448 15.0833 92.787 15.5391 92.4484 15.9297C92.1099 16.3151 91.6984 16.6172 91.2141 16.8359C90.7297 17.0495 90.1802 17.1562 89.5656 17.1562C88.9458 17.1562 88.3911 17.0495 87.9016 16.8359C87.4172 16.6172 87.0057 16.3151 86.6672 15.9297C86.3286 15.5391 86.0708 15.0833 85.8937 14.5625C85.7167 14.0417 85.6281 13.4766 85.6281 12.8672ZM87.5109 12.6875V12.8672C87.5109 13.2474 87.55 13.6068 87.6281 13.9453C87.7062 14.2839 87.8286 14.5807 87.9953 14.8359C88.162 15.0911 88.3755 15.2917 88.6359 15.4375C88.8964 15.5833 89.2062 15.6562 89.5656 15.6562C89.9146 15.6562 90.2167 15.5833 90.4719 15.4375C90.7323 15.2917 90.9458 15.0911 91.1125 14.8359C91.2792 14.5807 91.4016 14.2839 91.4797 13.9453C91.563 13.6068 91.6047 13.2474 91.6047 12.8672V12.6875C91.6047 12.3125 91.563 11.9583 91.4797 11.625C91.4016 11.2865 91.2766 10.987 91.1047 10.7266C90.938 10.4661 90.7245 10.263 90.4641 10.1172C90.2089 9.96615 89.9042 9.89062 89.55 9.89062C89.1958 9.89062 88.8885 9.96615 88.6281 10.1172C88.3729 10.263 88.162 10.4661 87.9953 10.7266C87.8286 10.987 87.7062 11.2865 87.6281 11.625C87.55 11.9583 87.5109 12.3125 87.5109 12.6875ZM96.7562 10.1562V17H94.8734V8.54688H96.6703L96.7562 10.1562ZM99.3422 8.49219L99.3266 10.2422C99.212 10.2214 99.087 10.2057 98.9516 10.1953C98.8214 10.1849 98.6911 10.1797 98.5609 10.1797C98.238 10.1797 97.9542 10.2266 97.7094 10.3203C97.4646 10.4089 97.2589 10.5391 97.0922 10.7109C96.9307 10.8776 96.8057 11.0807 96.7172 11.3203C96.6286 11.5599 96.5766 11.8281 96.5609 12.125L96.1312 12.1562C96.1312 11.625 96.1833 11.1328 96.2875 10.6797C96.3917 10.2266 96.5479 9.82812 96.7562 9.48438C96.9698 9.14062 97.2354 8.8724 97.5531 8.67969C97.876 8.48698 98.2484 8.39062 98.6703 8.39062C98.7849 8.39062 98.9073 8.40104 99.0375 8.42188C99.1729 8.44271 99.2745 8.46615 99.3422 8.49219ZM103.892 17.1562C103.267 17.1562 102.702 17.0547 102.197 16.8516C101.697 16.6432 101.27 16.3542 100.916 15.9844C100.567 15.6146 100.298 15.1797 100.111 14.6797C99.9234 14.1797 99.8297 13.6406 99.8297 13.0625V12.75C99.8297 12.0885 99.926 11.4896 100.119 10.9531C100.311 10.4167 100.58 9.95833 100.923 9.57812C101.267 9.19271 101.673 8.89844 102.142 8.69531C102.611 8.49219 103.119 8.39062 103.666 8.39062C104.27 8.39062 104.798 8.49219 105.252 8.69531C105.705 8.89844 106.08 9.1849 106.377 9.55469C106.679 9.91927 106.903 10.3542 107.048 10.8594C107.199 11.3646 107.275 11.9219 107.275 12.5312V13.3359H100.744V11.9844H105.416V11.8359C105.405 11.4974 105.338 11.1797 105.213 10.8828C105.093 10.5859 104.908 10.3464 104.658 10.1641C104.408 9.98177 104.074 9.89062 103.658 9.89062C103.345 9.89062 103.067 9.95833 102.822 10.0938C102.582 10.224 102.382 10.4141 102.22 10.6641C102.059 10.9141 101.934 11.2161 101.845 11.5703C101.762 11.9193 101.72 12.3125 101.72 12.75V13.0625C101.72 13.4323 101.77 13.776 101.869 14.0938C101.973 14.4062 102.124 14.6797 102.322 14.9141C102.52 15.1484 102.759 15.3333 103.041 15.4688C103.322 15.599 103.642 15.6641 104.002 15.6641C104.455 15.6641 104.858 15.5729 105.213 15.3906C105.567 15.2083 105.874 14.9505 106.134 14.6172L107.127 15.5781C106.944 15.8438 106.707 16.099 106.416 16.3438C106.124 16.5833 105.767 16.7786 105.345 16.9297C104.929 17.0807 104.444 17.1562 103.892 17.1562Z" fill="#1B1C21"/>
<path fill-rule="evenodd" clip-rule="evenodd" d="M14.5001 7.50008L12.0001 10.0001L9.50008 7.50008C9.22393 7.22393 8.77622 7.22393 8.50008 7.50008C8.22393 7.77622 8.22393 8.22393 8.50008 8.50008L11.293 11.293C11.6835 11.6835 12.3167 11.6835 12.7072 11.293L15.5001 8.50008C15.7762 8.22393 15.7762 7.77622 15.5001 7.50008C15.2239 7.22393 14.7762 7.22393 14.5001 7.50008ZM14.5001 13.5001L12.0001 16.0001L9.50008 13.5001C9.22393 13.2239 8.77622 13.2239 8.50008 13.5001C8.22393 13.7762 8.22393 14.2239 8.50008 14.5001L11.293 17.293C11.6835 17.6835 12.3167 17.6835 12.7072 17.293L15.5001 14.5001C15.7762 14.2239 15.7762 13.7762 15.5001 13.5001C15.2239 13.2239 14.7762 13.2239 14.5001 13.5001Z" fill="#41F6D7"/>
</svg>
