<svg width="211" height="40" viewBox="0 0 211 40" fill="none" xmlns="http://www.w3.org/2000/svg">
<path d="M21.5859 15.1406L18.1875 25H16.1328L20.4141 13.625H21.7266L21.5859 15.1406ZM24.4297 25L21.0234 15.1406L20.875 13.625H22.1953L26.4922 25H24.4297ZM24.2656 20.7812V22.3359H18.0781V20.7812H24.2656ZM32.5344 23.25V13H34.425V25H32.7141L32.5344 23.25ZM27.0344 20.8672V20.7031C27.0344 20.0625 27.1099 19.4792 27.2609 18.9531C27.412 18.4219 27.6307 17.9661 27.9172 17.5859C28.2036 17.2005 28.5526 16.9062 28.9641 16.7031C29.3755 16.4948 29.8391 16.3906 30.3547 16.3906C30.8651 16.3906 31.313 16.4896 31.6984 16.6875C32.0839 16.8854 32.412 17.1693 32.6828 17.5391C32.9536 17.9036 33.1698 18.3411 33.3313 18.8516C33.4927 19.3568 33.6073 19.9193 33.675 20.5391V21.0625C33.6073 21.6667 33.4927 22.2188 33.3313 22.7188C33.1698 23.2188 32.9536 23.651 32.6828 24.0156C32.412 24.3802 32.0813 24.6615 31.6906 24.8594C31.3052 25.0573 30.8547 25.1562 30.3391 25.1562C29.8286 25.1562 29.3677 25.0495 28.9563 24.8359C28.55 24.6224 28.2036 24.3229 27.9172 23.9375C27.6307 23.5521 27.412 23.099 27.2609 22.5781C27.1099 22.0521 27.0344 21.4818 27.0344 20.8672ZM28.9172 20.7031V20.8672C28.9172 21.2526 28.951 21.612 29.0188 21.9453C29.0917 22.2786 29.2036 22.5729 29.3547 22.8281C29.5057 23.0781 29.701 23.276 29.9406 23.4219C30.1854 23.5625 30.4771 23.6328 30.8156 23.6328C31.2427 23.6328 31.5943 23.5391 31.8703 23.3516C32.1464 23.1641 32.3625 22.9115 32.5188 22.5938C32.6802 22.2708 32.7896 21.9115 32.8469 21.5156V20.1016C32.8156 19.7943 32.7505 19.5078 32.6516 19.2422C32.5578 18.9766 32.4302 18.7448 32.2688 18.5469C32.1073 18.3438 31.9068 18.1875 31.6672 18.0781C31.4328 17.9635 31.1542 17.9062 30.8313 17.9062C30.4875 17.9062 30.1958 17.9792 29.9563 18.125C29.7167 18.2708 29.5188 18.4714 29.3625 18.7266C29.2115 18.9818 29.0995 19.2786 29.0266 19.6172C28.9536 19.9557 28.9172 20.3177 28.9172 20.7031ZM41.35 23.25V13H43.2406V25H41.5297L41.35 23.25ZM35.85 20.8672V20.7031C35.85 20.0625 35.9255 19.4792 36.0766 18.9531C36.2276 18.4219 36.4464 17.9661 36.7328 17.5859C37.0193 17.2005 37.3682 16.9062 37.7797 16.7031C38.1911 16.4948 38.6547 16.3906 39.1703 16.3906C39.6807 16.3906 40.1286 16.4896 40.5141 16.6875C40.8995 16.8854 41.2276 17.1693 41.4984 17.5391C41.7693 17.9036 41.9854 18.3411 42.1469 18.8516C42.3083 19.3568 42.4229 19.9193 42.4906 20.5391V21.0625C42.4229 21.6667 42.3083 22.2188 42.1469 22.7188C41.9854 23.2188 41.7693 23.651 41.4984 24.0156C41.2276 24.3802 40.8969 24.6615 40.5063 24.8594C40.1208 25.0573 39.6703 25.1562 39.1547 25.1562C38.6443 25.1562 38.1833 25.0495 37.7719 24.8359C37.3656 24.6224 37.0193 24.3229 36.7328 23.9375C36.4464 23.5521 36.2276 23.099 36.0766 22.5781C35.9255 22.0521 35.85 21.4818 35.85 20.8672ZM37.7328 20.7031V20.8672C37.7328 21.2526 37.7667 21.612 37.8344 21.9453C37.9073 22.2786 38.0193 22.5729 38.1703 22.8281C38.3214 23.0781 38.5167 23.276 38.7563 23.4219C39.001 23.5625 39.2927 23.6328 39.6313 23.6328C40.0583 23.6328 40.4099 23.5391 40.6859 23.3516C40.962 23.1641 41.1781 22.9115 41.3344 22.5938C41.4958 22.2708 41.6052 21.9115 41.6625 21.5156V20.1016C41.6313 19.7943 41.5661 19.5078 41.4672 19.2422C41.3734 18.9766 41.2458 18.7448 41.0844 18.5469C40.9229 18.3438 40.7224 18.1875 40.4828 18.0781C40.2484 17.9635 39.9698 17.9062 39.6469 17.9062C39.3031 17.9062 39.0115 17.9792 38.7719 18.125C38.5323 18.2708 38.3344 18.4714 38.1781 18.7266C38.0271 18.9818 37.9151 19.2786 37.8422 19.6172C37.7693 19.9557 37.7328 20.3177 37.7328 20.7031ZM47.025 16.5469V25H45.1344V16.5469H47.025ZM45.0094 14.3281C45.0094 14.0417 45.1031 13.8047 45.2906 13.6172C45.4833 13.4245 45.749 13.3281 46.0875 13.3281C46.4208 13.3281 46.6839 13.4245 46.8766 13.6172C47.0693 13.8047 47.1656 14.0417 47.1656 14.3281C47.1656 14.6094 47.0693 14.8438 46.8766 15.0312C46.6839 15.2188 46.4208 15.3125 46.0875 15.3125C45.749 15.3125 45.4833 15.2188 45.2906 15.0312C45.1031 14.8438 45.0094 14.6094 45.0094 14.3281ZM52.7625 16.5469V17.9219H47.9969V16.5469H52.7625ZM49.3719 14.4766H51.2547V22.6641C51.2547 22.9245 51.2911 23.125 51.3641 23.2656C51.4422 23.401 51.549 23.4922 51.6844 23.5391C51.8198 23.5859 51.9786 23.6094 52.1609 23.6094C52.2911 23.6094 52.4161 23.6016 52.5359 23.5859C52.6557 23.5703 52.7521 23.5547 52.825 23.5391L52.8328 24.9766C52.6766 25.0234 52.4943 25.0651 52.2859 25.1016C52.0828 25.138 51.8484 25.1562 51.5828 25.1562C51.1505 25.1562 50.7677 25.0807 50.4344 24.9297C50.101 24.7734 49.8406 24.5208 49.6531 24.1719C49.4656 23.8229 49.3719 23.3594 49.3719 22.7812V14.4766ZM56.0312 16.5469V25H54.1406V16.5469H56.0312ZM54.0156 14.3281C54.0156 14.0417 54.1094 13.8047 54.2969 13.6172C54.4896 13.4245 54.7552 13.3281 55.0938 13.3281C55.4271 13.3281 55.6901 13.4245 55.8828 13.6172C56.0755 13.8047 56.1719 14.0417 56.1719 14.3281C56.1719 14.6094 56.0755 14.8438 55.8828 15.0312C55.6901 15.2188 55.4271 15.3125 55.0938 15.3125C54.7552 15.3125 54.4896 15.2188 54.2969 15.0312C54.1094 14.8438 54.0156 14.6094 54.0156 14.3281ZM57.5344 20.8672V20.6875C57.5344 20.0781 57.6229 19.513 57.8 18.9922C57.9771 18.4661 58.2323 18.0104 58.5656 17.625C58.9042 17.2344 59.3156 16.9323 59.8 16.7188C60.2896 16.5 60.8417 16.3906 61.4562 16.3906C62.076 16.3906 62.6281 16.5 63.1125 16.7188C63.6021 16.9323 64.0161 17.2344 64.3547 17.625C64.6932 18.0104 64.951 18.4661 65.1281 18.9922C65.3052 19.513 65.3937 20.0781 65.3937 20.6875V20.8672C65.3937 21.4766 65.3052 22.0417 65.1281 22.5625C64.951 23.0833 64.6932 23.5391 64.3547 23.9297C64.0161 24.3151 63.6047 24.6172 63.1203 24.8359C62.6359 25.0495 62.0865 25.1562 61.4719 25.1562C60.8521 25.1562 60.2974 25.0495 59.8078 24.8359C59.3234 24.6172 58.912 24.3151 58.5734 23.9297C58.2349 23.5391 57.9771 23.0833 57.8 22.5625C57.6229 22.0417 57.5344 21.4766 57.5344 20.8672ZM59.4172 20.6875V20.8672C59.4172 21.2474 59.4562 21.6068 59.5344 21.9453C59.6125 22.2839 59.7349 22.5807 59.9016 22.8359C60.0682 23.0911 60.2818 23.2917 60.5422 23.4375C60.8026 23.5833 61.1125 23.6562 61.4719 23.6562C61.8208 23.6562 62.1229 23.5833 62.3781 23.4375C62.6385 23.2917 62.8521 23.0911 63.0187 22.8359C63.1854 22.5807 63.3078 22.2839 63.3859 21.9453C63.4693 21.6068 63.5109 21.2474 63.5109 20.8672V20.6875C63.5109 20.3125 63.4693 19.9583 63.3859 19.625C63.3078 19.2865 63.1828 18.987 63.0109 18.7266C62.8443 18.4661 62.6307 18.263 62.3703 18.1172C62.1151 17.9661 61.8104 17.8906 61.4562 17.8906C61.1021 17.8906 60.7948 17.9661 60.5344 18.1172C60.2792 18.263 60.0682 18.4661 59.9016 18.7266C59.7349 18.987 59.6125 19.2865 59.5344 19.625C59.4562 19.9583 59.4172 20.3125 59.4172 20.6875ZM68.6391 18.3516V25H66.7562V16.5469H68.5297L68.6391 18.3516ZM68.3031 20.4609L67.6937 20.4531C67.699 19.8542 67.7823 19.3047 67.9437 18.8047C68.1104 18.3047 68.3396 17.875 68.6312 17.5156C68.9281 17.1562 69.2823 16.8802 69.6937 16.6875C70.1052 16.4896 70.5635 16.3906 71.0687 16.3906C71.475 16.3906 71.8422 16.4479 72.1703 16.5625C72.5036 16.6719 72.7875 16.8516 73.0219 17.1016C73.2615 17.3516 73.4437 17.6771 73.5687 18.0781C73.6937 18.474 73.7562 18.9609 73.7562 19.5391V25H71.8656V19.5312C71.8656 19.125 71.8057 18.8047 71.6859 18.5703C71.5714 18.3307 71.4021 18.1615 71.1781 18.0625C70.9594 17.9583 70.6859 17.9062 70.3578 17.9062C70.0349 17.9062 69.7458 17.974 69.4906 18.1094C69.2354 18.2448 69.0193 18.4297 68.8422 18.6641C68.6703 18.8984 68.5375 19.1693 68.4437 19.4766C68.35 19.7839 68.3031 20.112 68.3031 20.4609ZM80.2438 23.3047V19.2734C80.2438 18.9714 80.1891 18.7109 80.0797 18.4922C79.9703 18.2734 79.8036 18.1042 79.5797 17.9844C79.3609 17.8646 79.0849 17.8047 78.7516 17.8047C78.4443 17.8047 78.1786 17.8568 77.9547 17.9609C77.7307 18.0651 77.5563 18.2057 77.4313 18.3828C77.3063 18.5599 77.2438 18.7604 77.2438 18.9844H75.3688C75.3688 18.651 75.4495 18.3281 75.6109 18.0156C75.7724 17.7031 76.0068 17.4245 76.3141 17.1797C76.6214 16.9349 76.9885 16.7422 77.4156 16.6016C77.8427 16.4609 78.3219 16.3906 78.8531 16.3906C79.4885 16.3906 80.051 16.4974 80.5406 16.7109C81.0354 16.9245 81.4234 17.2474 81.7047 17.6797C81.9911 18.1068 82.1344 18.6432 82.1344 19.2891V23.0469C82.1344 23.4323 82.1604 23.7786 82.2125 24.0859C82.2698 24.388 82.3505 24.651 82.4547 24.875V25H80.525C80.4365 24.7969 80.3661 24.5391 80.3141 24.2266C80.2672 23.9089 80.2438 23.6016 80.2438 23.3047ZM80.5172 19.8594L80.5328 21.0234H79.1813C78.8323 21.0234 78.525 21.0573 78.2594 21.125C77.9938 21.1875 77.7724 21.2812 77.5953 21.4062C77.4182 21.5312 77.2854 21.6823 77.1969 21.8594C77.1083 22.0365 77.0641 22.237 77.0641 22.4609C77.0641 22.6849 77.1161 22.8906 77.2203 23.0781C77.3245 23.2604 77.4755 23.4036 77.6734 23.5078C77.8766 23.612 78.1214 23.6641 78.4078 23.6641C78.7932 23.6641 79.1292 23.5859 79.4156 23.4297C79.7073 23.2682 79.9365 23.0729 80.1031 22.8438C80.2698 22.6094 80.3583 22.388 80.3688 22.1797L80.9781 23.0156C80.9156 23.2292 80.8089 23.4583 80.6578 23.7031C80.5068 23.9479 80.3089 24.1823 80.0641 24.4062C79.8245 24.625 79.5354 24.8047 79.1969 24.9453C78.8635 25.0859 78.4781 25.1562 78.0406 25.1562C77.4885 25.1562 76.9964 25.0469 76.5641 24.8281C76.1318 24.6042 75.7932 24.3047 75.5484 23.9297C75.3036 23.5495 75.1813 23.1198 75.1813 22.6406C75.1813 22.1927 75.2646 21.7969 75.4313 21.4531C75.6031 21.1042 75.8531 20.8125 76.1813 20.5781C76.5146 20.3438 76.9208 20.1667 77.4 20.0469C77.8792 19.9219 78.426 19.8594 79.0406 19.8594H80.5172ZM85.9187 13V25H84.0281V13H85.9187ZM97.7375 22.0703C97.7375 21.8359 97.701 21.6276 97.6281 21.4453C97.5604 21.263 97.438 21.0964 97.2609 20.9453C97.0839 20.7943 96.8339 20.6484 96.5109 20.5078C96.1932 20.362 95.787 20.2135 95.2922 20.0625C94.7505 19.8958 94.2505 19.7109 93.7922 19.5078C93.3391 19.2995 92.9432 19.0599 92.6047 18.7891C92.2661 18.513 92.0031 18.1979 91.8156 17.8438C91.6281 17.4844 91.5344 17.0703 91.5344 16.6016C91.5344 16.138 91.6307 15.7161 91.8234 15.3359C92.0214 14.9557 92.3 14.6276 92.6594 14.3516C93.024 14.0703 93.4536 13.8542 93.9484 13.7031C94.4432 13.5469 94.9901 13.4688 95.5891 13.4688C96.4328 13.4688 97.1594 13.625 97.7688 13.9375C98.3833 14.25 98.8547 14.6693 99.1828 15.1953C99.5161 15.7214 99.6828 16.3021 99.6828 16.9375H97.7375C97.7375 16.5625 97.6568 16.2318 97.4953 15.9453C97.3391 15.6536 97.0995 15.4245 96.7766 15.2578C96.4589 15.0911 96.0552 15.0078 95.5656 15.0078C95.1021 15.0078 94.7167 15.0781 94.4094 15.2188C94.1021 15.3594 93.8729 15.5495 93.7219 15.7891C93.5708 16.0286 93.4953 16.2995 93.4953 16.6016C93.4953 16.8151 93.5448 17.0104 93.6438 17.1875C93.7427 17.3594 93.8938 17.5208 94.0969 17.6719C94.3 17.8177 94.5552 17.9557 94.8625 18.0859C95.1698 18.2161 95.5318 18.3411 95.9484 18.4609C96.5786 18.6484 97.1281 18.8568 97.5969 19.0859C98.0656 19.3099 98.4563 19.5651 98.7688 19.8516C99.0813 20.138 99.3156 20.4635 99.4719 20.8281C99.6281 21.1875 99.7063 21.5964 99.7063 22.0547C99.7063 22.5339 99.6099 22.9661 99.4172 23.3516C99.2245 23.7318 98.9484 24.0573 98.5891 24.3281C98.2349 24.5938 97.8078 24.7995 97.3078 24.9453C96.813 25.0859 96.2609 25.1562 95.6516 25.1562C95.1047 25.1562 94.5656 25.0833 94.0344 24.9375C93.5083 24.7917 93.0292 24.5703 92.5969 24.2734C92.1646 23.9714 91.8208 23.5964 91.5656 23.1484C91.3104 22.6953 91.1828 22.1667 91.1828 21.5625H93.1438C93.1438 21.9323 93.2063 22.2474 93.3313 22.5078C93.4615 22.7682 93.6411 22.9818 93.8703 23.1484C94.0995 23.3099 94.3651 23.4297 94.6672 23.5078C94.9745 23.5859 95.3026 23.625 95.6516 23.625C96.1099 23.625 96.4927 23.5599 96.8 23.4297C97.1125 23.2995 97.3469 23.1172 97.5031 22.8828C97.6594 22.6484 97.7375 22.3776 97.7375 22.0703ZM104.78 25.1562C104.155 25.1562 103.59 25.0547 103.084 24.8516C102.584 24.6432 102.157 24.3542 101.803 23.9844C101.454 23.6146 101.186 23.1797 100.998 22.6797C100.811 22.1797 100.717 21.6406 100.717 21.0625V20.75C100.717 20.0885 100.814 19.4896 101.006 18.9531C101.199 18.4167 101.467 17.9583 101.811 17.5781C102.155 17.1927 102.561 16.8984 103.03 16.6953C103.498 16.4922 104.006 16.3906 104.553 16.3906C105.157 16.3906 105.686 16.4922 106.139 16.6953C106.592 16.8984 106.967 17.1849 107.264 17.5547C107.566 17.9193 107.79 18.3542 107.936 18.8594C108.087 19.3646 108.162 19.9219 108.162 20.5312V21.3359H101.631V19.9844H106.303V19.8359C106.293 19.4974 106.225 19.1797 106.1 18.8828C105.98 18.5859 105.795 18.3464 105.545 18.1641C105.295 17.9818 104.962 17.8906 104.545 17.8906C104.233 17.8906 103.954 17.9583 103.709 18.0938C103.47 18.224 103.269 18.4141 103.108 18.6641C102.946 18.9141 102.821 19.2161 102.733 19.5703C102.649 19.9193 102.608 20.3125 102.608 20.75V21.0625C102.608 21.4323 102.657 21.776 102.756 22.0938C102.86 22.4062 103.011 22.6797 103.209 22.9141C103.407 23.1484 103.647 23.3333 103.928 23.4688C104.209 23.599 104.53 23.6641 104.889 23.6641C105.342 23.6641 105.746 23.5729 106.1 23.3906C106.454 23.2083 106.761 22.9505 107.022 22.6172L108.014 23.5781C107.832 23.8438 107.595 24.099 107.303 24.3438C107.011 24.5833 106.655 24.7786 106.233 24.9297C105.816 25.0807 105.332 25.1562 104.78 25.1562ZM111.322 18.1562V25H109.439V16.5469H111.236L111.322 18.1562ZM113.908 16.4922L113.892 18.2422C113.778 18.2214 113.653 18.2057 113.517 18.1953C113.387 18.1849 113.257 18.1797 113.127 18.1797C112.804 18.1797 112.52 18.2266 112.275 18.3203C112.03 18.4089 111.824 18.5391 111.658 18.7109C111.496 18.8776 111.371 19.0807 111.283 19.3203C111.194 19.5599 111.142 19.8281 111.127 20.125L110.697 20.1562C110.697 19.625 110.749 19.1328 110.853 18.6797C110.957 18.2266 111.114 17.8281 111.322 17.4844C111.535 17.1406 111.801 16.8724 112.119 16.6797C112.442 16.487 112.814 16.3906 113.236 16.3906C113.351 16.3906 113.473 16.401 113.603 16.4219C113.739 16.4427 113.84 16.4661 113.908 16.4922ZM117.778 23.5078L119.848 16.5469H121.802L118.864 25H117.645L117.778 23.5078ZM116.192 16.5469L118.302 23.5391L118.403 25H117.184L114.231 16.5469H116.192ZM124.781 16.5469V25H122.891V16.5469H124.781ZM122.766 14.3281C122.766 14.0417 122.859 13.8047 123.047 13.6172C123.24 13.4245 123.505 13.3281 123.844 13.3281C124.177 13.3281 124.44 13.4245 124.633 13.6172C124.826 13.8047 124.922 14.0417 124.922 14.3281C124.922 14.6094 124.826 14.8438 124.633 15.0312C124.44 15.2188 124.177 15.3125 123.844 15.3125C123.505 15.3125 123.24 15.2188 123.047 15.0312C122.859 14.8438 122.766 14.6094 122.766 14.3281ZM130.097 23.6562C130.404 23.6562 130.68 23.5964 130.925 23.4766C131.175 23.3516 131.376 23.1797 131.527 22.9609C131.683 22.7422 131.769 22.4896 131.784 22.2031H133.558C133.547 22.75 133.386 23.2474 133.073 23.6953C132.761 24.1432 132.347 24.5 131.831 24.7656C131.316 25.026 130.745 25.1562 130.12 25.1562C129.474 25.1562 128.912 25.0469 128.433 24.8281C127.954 24.6042 127.555 24.2969 127.238 23.9062C126.92 23.5156 126.68 23.0651 126.519 22.5547C126.363 22.0443 126.284 21.4974 126.284 20.9141V20.6406C126.284 20.0573 126.363 19.5104 126.519 19C126.68 18.4844 126.92 18.0312 127.238 17.6406C127.555 17.25 127.954 16.9453 128.433 16.7266C128.912 16.5026 129.472 16.3906 130.113 16.3906C130.79 16.3906 131.383 16.526 131.894 16.7969C132.404 17.0625 132.805 17.4349 133.097 17.9141C133.394 18.388 133.547 18.9401 133.558 19.5703H131.784C131.769 19.2578 131.691 18.9766 131.55 18.7266C131.415 18.4714 131.222 18.2682 130.972 18.1172C130.727 17.9661 130.433 17.8906 130.089 17.8906C129.709 17.8906 129.394 17.9688 129.144 18.125C128.894 18.276 128.698 18.4844 128.558 18.75C128.417 19.0104 128.316 19.3047 128.253 19.6328C128.196 19.9557 128.167 20.2917 128.167 20.6406V20.9141C128.167 21.263 128.196 21.6016 128.253 21.9297C128.31 22.2578 128.409 22.5521 128.55 22.8125C128.696 23.0677 128.894 23.2734 129.144 23.4297C129.394 23.5807 129.711 23.6562 130.097 23.6562ZM138.53 25.1562C137.905 25.1562 137.34 25.0547 136.834 24.8516C136.334 24.6432 135.907 24.3542 135.553 23.9844C135.204 23.6146 134.936 23.1797 134.748 22.6797C134.561 22.1797 134.467 21.6406 134.467 21.0625V20.75C134.467 20.0885 134.564 19.4896 134.756 18.9531C134.949 18.4167 135.217 17.9583 135.561 17.5781C135.905 17.1927 136.311 16.8984 136.78 16.6953C137.248 16.4922 137.756 16.3906 138.303 16.3906C138.907 16.3906 139.436 16.4922 139.889 16.6953C140.342 16.8984 140.717 17.1849 141.014 17.5547C141.316 17.9193 141.54 18.3542 141.686 18.8594C141.837 19.3646 141.912 19.9219 141.912 20.5312V21.3359H135.381V19.9844H140.053V19.8359C140.043 19.4974 139.975 19.1797 139.85 18.8828C139.73 18.5859 139.545 18.3464 139.295 18.1641C139.045 17.9818 138.712 17.8906 138.295 17.8906C137.983 17.8906 137.704 17.9583 137.459 18.0938C137.22 18.224 137.019 18.4141 136.858 18.6641C136.696 18.9141 136.571 19.2161 136.483 19.5703C136.399 19.9193 136.358 20.3125 136.358 20.75V21.0625C136.358 21.4323 136.407 21.776 136.506 22.0938C136.61 22.4062 136.761 22.6797 136.959 22.9141C137.157 23.1484 137.397 23.3333 137.678 23.4688C137.959 23.599 138.28 23.6641 138.639 23.6641C139.092 23.6641 139.496 23.5729 139.85 23.3906C140.204 23.2083 140.511 22.9505 140.772 22.6172L141.764 23.5781C141.582 23.8438 141.345 24.099 141.053 24.3438C140.761 24.5833 140.405 24.7786 139.983 24.9297C139.566 25.0807 139.082 25.1562 138.53 25.1562ZM147.923 22.7109C147.923 22.5234 147.877 22.3542 147.783 22.2031C147.689 22.0469 147.509 21.9062 147.244 21.7812C146.983 21.6562 146.598 21.5417 146.088 21.4375C145.64 21.3385 145.228 21.2214 144.853 21.0859C144.483 20.9453 144.166 20.776 143.9 20.5781C143.634 20.3802 143.429 20.1458 143.283 19.875C143.137 19.6042 143.064 19.2917 143.064 18.9375C143.064 18.5938 143.14 18.2682 143.291 17.9609C143.442 17.6536 143.658 17.3828 143.939 17.1484C144.22 16.9141 144.561 16.7292 144.963 16.5938C145.369 16.4583 145.822 16.3906 146.322 16.3906C147.03 16.3906 147.637 16.5104 148.142 16.75C148.653 16.9844 149.043 17.3047 149.314 17.7109C149.585 18.112 149.72 18.5651 149.72 19.0703H147.838C147.838 18.8464 147.78 18.638 147.666 18.4453C147.556 18.2474 147.39 18.0885 147.166 17.9688C146.942 17.8438 146.66 17.7812 146.322 17.7812C145.999 17.7812 145.731 17.8333 145.517 17.9375C145.309 18.0365 145.153 18.1667 145.048 18.3281C144.949 18.4896 144.9 18.6667 144.9 18.8594C144.9 19 144.926 19.1276 144.978 19.2422C145.035 19.3516 145.129 19.4531 145.259 19.5469C145.39 19.6354 145.567 19.7188 145.791 19.7969C146.02 19.875 146.306 19.9505 146.65 20.0234C147.296 20.1589 147.851 20.3333 148.314 20.5469C148.783 20.7552 149.142 21.026 149.392 21.3594C149.642 21.6875 149.767 22.1042 149.767 22.6094C149.767 22.9844 149.686 23.3281 149.525 23.6406C149.369 23.9479 149.14 24.2161 148.838 24.4453C148.535 24.6693 148.173 24.8438 147.752 24.9688C147.335 25.0938 146.866 25.1562 146.345 25.1562C145.58 25.1562 144.931 25.0208 144.4 24.75C143.869 24.474 143.465 24.1224 143.189 23.6953C142.918 23.263 142.783 22.8151 142.783 22.3516H144.603C144.624 22.7005 144.72 22.9792 144.892 23.1875C145.069 23.3906 145.288 23.5391 145.548 23.6328C145.814 23.7214 146.088 23.7656 146.369 23.7656C146.707 23.7656 146.991 23.7214 147.22 23.6328C147.449 23.5391 147.624 23.4141 147.744 23.2578C147.864 23.0964 147.923 22.9141 147.923 22.7109Z" fill="#7E7E82"/>
</svg>
