<svg width="143" height="40" viewBox="0 0 143 40" fill="none" xmlns="http://www.w3.org/2000/svg">
<path d="M21.9702 22.0703C21.9702 21.8359 21.9338 21.6276 21.8608 21.4453C21.7931 21.263 21.6707 21.0964 21.4937 20.9453C21.3166 20.7943 21.0666 20.6484 20.7437 20.5078C20.4259 20.362 20.0197 20.2135 19.5249 20.0625C18.9832 19.8958 18.4832 19.7109 18.0249 19.5078C17.5718 19.2995 17.1759 19.0599 16.8374 18.7891C16.4989 18.513 16.2358 18.1979 16.0483 17.8438C15.8608 17.4844 15.7671 17.0703 15.7671 16.6016C15.7671 16.138 15.8634 15.7161 16.0562 15.3359C16.2541 14.9557 16.5327 14.6276 16.8921 14.3516C17.2567 14.0703 17.6864 13.8542 18.1812 13.7031C18.6759 13.5469 19.2228 13.4688 19.8218 13.4688C20.6655 13.4688 21.3921 13.625 22.0015 13.9375C22.616 14.25 23.0874 14.6693 23.4155 15.1953C23.7489 15.7214 23.9155 16.3021 23.9155 16.9375H21.9702C21.9702 16.5625 21.8895 16.2318 21.728 15.9453C21.5718 15.6536 21.3322 15.4245 21.0093 15.2578C20.6916 15.0911 20.2879 15.0078 19.7983 15.0078C19.3348 15.0078 18.9494 15.0781 18.6421 15.2188C18.3348 15.3594 18.1056 15.5495 17.9546 15.7891C17.8035 16.0286 17.728 16.2995 17.728 16.6016C17.728 16.8151 17.7775 17.0104 17.8765 17.1875C17.9754 17.3594 18.1265 17.5208 18.3296 17.6719C18.5327 17.8177 18.7879 17.9557 19.0952 18.0859C19.4025 18.2161 19.7645 18.3411 20.1812 18.4609C20.8114 18.6484 21.3608 18.8568 21.8296 19.0859C22.2983 19.3099 22.689 19.5651 23.0015 19.8516C23.314 20.138 23.5483 20.4635 23.7046 20.8281C23.8608 21.1875 23.939 21.5964 23.939 22.0547C23.939 22.5339 23.8426 22.9661 23.6499 23.3516C23.4572 23.7318 23.1812 24.0573 22.8218 24.3281C22.4676 24.5938 22.0405 24.7995 21.5405 24.9453C21.0457 25.0859 20.4937 25.1562 19.8843 25.1562C19.3374 25.1562 18.7983 25.0833 18.2671 24.9375C17.741 24.7917 17.2619 24.5703 16.8296 24.2734C16.3973 23.9714 16.0535 23.5964 15.7983 23.1484C15.5431 22.6953 15.4155 22.1667 15.4155 21.5625H17.3765C17.3765 21.9323 17.439 22.2474 17.564 22.5078C17.6942 22.7682 17.8739 22.9818 18.103 23.1484C18.3322 23.3099 18.5978 23.4297 18.8999 23.5078C19.2072 23.5859 19.5353 23.625 19.8843 23.625C20.3426 23.625 20.7254 23.5599 21.0327 23.4297C21.3452 23.2995 21.5796 23.1172 21.7358 22.8828C21.8921 22.6484 21.9702 22.3776 21.9702 22.0703ZM29.0124 25.1562C28.3874 25.1562 27.8223 25.0547 27.3171 24.8516C26.8171 24.6432 26.39 24.3542 26.0358 23.9844C25.6869 23.6146 25.4187 23.1797 25.2312 22.6797C25.0437 22.1797 24.9499 21.6406 24.9499 21.0625V20.75C24.9499 20.0885 25.0463 19.4896 25.239 18.9531C25.4317 18.4167 25.6999 17.9583 26.0437 17.5781C26.3874 17.1927 26.7937 16.8984 27.2624 16.6953C27.7312 16.4922 28.239 16.3906 28.7858 16.3906C29.39 16.3906 29.9187 16.4922 30.3718 16.6953C30.8249 16.8984 31.1999 17.1849 31.4968 17.5547C31.7989 17.9193 32.0228 18.3542 32.1687 18.8594C32.3197 19.3646 32.3952 19.9219 32.3952 20.5312V21.3359H25.864V19.9844H30.5358V19.8359C30.5254 19.4974 30.4577 19.1797 30.3327 18.8828C30.2129 18.5859 30.028 18.3464 29.778 18.1641C29.528 17.9818 29.1947 17.8906 28.778 17.8906C28.4655 17.8906 28.1869 17.9583 27.9421 18.0938C27.7025 18.224 27.502 18.4141 27.3405 18.6641C27.1791 18.9141 27.0541 19.2161 26.9655 19.5703C26.8822 19.9193 26.8405 20.3125 26.8405 20.75V21.0625C26.8405 21.4323 26.89 21.776 26.989 22.0938C27.0931 22.4062 27.2442 22.6797 27.4421 22.9141C27.64 23.1484 27.8796 23.3333 28.1608 23.4688C28.4421 23.599 28.7624 23.6641 29.1218 23.6641C29.5749 23.6641 29.9785 23.5729 30.3327 23.3906C30.6869 23.2083 30.9942 22.9505 31.2546 22.6172L32.2468 23.5781C32.0645 23.8438 31.8275 24.099 31.5358 24.3438C31.2442 24.5833 30.8874 24.7786 30.4655 24.9297C30.0489 25.0807 29.5645 25.1562 29.0124 25.1562ZM35.5546 18.1562V25H33.6718V16.5469H35.4687L35.5546 18.1562ZM38.1405 16.4922L38.1249 18.2422C38.0103 18.2214 37.8853 18.2057 37.7499 18.1953C37.6197 18.1849 37.4895 18.1797 37.3593 18.1797C37.0364 18.1797 36.7525 18.2266 36.5077 18.3203C36.2629 18.4089 36.0572 18.5391 35.8905 18.7109C35.7291 18.8776 35.6041 19.0807 35.5155 19.3203C35.427 19.5599 35.3749 19.8281 35.3593 20.125L34.9296 20.1562C34.9296 19.625 34.9817 19.1328 35.0858 18.6797C35.19 18.2266 35.3463 17.8281 35.5546 17.4844C35.7681 17.1406 36.0338 16.8724 36.3515 16.6797C36.6744 16.487 37.0468 16.3906 37.4687 16.3906C37.5832 16.3906 37.7056 16.401 37.8358 16.4219C37.9713 16.4427 38.0728 16.4661 38.1405 16.4922ZM42.0108 23.5078L44.0812 16.5469H46.0343L43.0968 25H41.878L42.0108 23.5078ZM40.4249 16.5469L42.5343 23.5391L42.6358 25H41.4171L38.464 16.5469H40.4249ZM49.014 16.5469V25H47.1233V16.5469H49.014ZM46.9983 14.3281C46.9983 14.0417 47.0921 13.8047 47.2796 13.6172C47.4723 13.4245 47.7379 13.3281 48.0765 13.3281C48.4098 13.3281 48.6728 13.4245 48.8655 13.6172C49.0582 13.8047 49.1546 14.0417 49.1546 14.3281C49.1546 14.6094 49.0582 14.8438 48.8655 15.0312C48.6728 15.2188 48.4098 15.3125 48.0765 15.3125C47.7379 15.3125 47.4723 15.2188 47.2796 15.0312C47.0921 14.8438 46.9983 14.6094 46.9983 14.3281ZM54.3296 23.6562C54.6369 23.6562 54.9129 23.5964 55.1577 23.4766C55.4077 23.3516 55.6082 23.1797 55.7593 22.9609C55.9155 22.7422 56.0015 22.4896 56.0171 22.2031H57.7905C57.7801 22.75 57.6187 23.2474 57.3062 23.6953C56.9937 24.1432 56.5796 24.5 56.064 24.7656C55.5483 25.026 54.978 25.1562 54.353 25.1562C53.7072 25.1562 53.1447 25.0469 52.6655 24.8281C52.1864 24.6042 51.7879 24.2969 51.4702 23.9062C51.1525 23.5156 50.9129 23.0651 50.7515 22.5547C50.5952 22.0443 50.5171 21.4974 50.5171 20.9141V20.6406C50.5171 20.0573 50.5952 19.5104 50.7515 19C50.9129 18.4844 51.1525 18.0312 51.4702 17.6406C51.7879 17.25 52.1864 16.9453 52.6655 16.7266C53.1447 16.5026 53.7046 16.3906 54.3452 16.3906C55.0223 16.3906 55.616 16.526 56.1265 16.7969C56.6369 17.0625 57.0379 17.4349 57.3296 17.9141C57.6265 18.388 57.7801 18.9401 57.7905 19.5703H56.0171C56.0015 19.2578 55.9233 18.9766 55.7827 18.7266C55.6473 18.4714 55.4546 18.2682 55.2046 18.1172C54.9598 17.9661 54.6655 17.8906 54.3218 17.8906C53.9416 17.8906 53.6265 17.9688 53.3765 18.125C53.1265 18.276 52.9312 18.4844 52.7905 18.75C52.6499 19.0104 52.5483 19.3047 52.4858 19.6328C52.4285 19.9557 52.3999 20.2917 52.3999 20.6406V20.9141C52.3999 21.263 52.4285 21.6016 52.4858 21.9297C52.5431 22.2578 52.6421 22.5521 52.7827 22.8125C52.9285 23.0677 53.1265 23.2734 53.3765 23.4297C53.6265 23.5807 53.9442 23.6562 54.3296 23.6562ZM62.7624 25.1562C62.1374 25.1562 61.5723 25.0547 61.0671 24.8516C60.5671 24.6432 60.14 24.3542 59.7858 23.9844C59.4369 23.6146 59.1687 23.1797 58.9812 22.6797C58.7937 22.1797 58.6999 21.6406 58.6999 21.0625V20.75C58.6999 20.0885 58.7963 19.4896 58.989 18.9531C59.1817 18.4167 59.4499 17.9583 59.7937 17.5781C60.1374 17.1927 60.5437 16.8984 61.0124 16.6953C61.4812 16.4922 61.989 16.3906 62.5358 16.3906C63.14 16.3906 63.6687 16.4922 64.1218 16.6953C64.5749 16.8984 64.9499 17.1849 65.2468 17.5547C65.5489 17.9193 65.7728 18.3542 65.9187 18.8594C66.0697 19.3646 66.1452 19.9219 66.1452 20.5312V21.3359H59.614V19.9844H64.2858V19.8359C64.2754 19.4974 64.2077 19.1797 64.0827 18.8828C63.9629 18.5859 63.778 18.3464 63.528 18.1641C63.278 17.9818 62.9447 17.8906 62.528 17.8906C62.2155 17.8906 61.9369 17.9583 61.6921 18.0938C61.4525 18.224 61.252 18.4141 61.0905 18.6641C60.9291 18.9141 60.8041 19.2161 60.7155 19.5703C60.6322 19.9193 60.5905 20.3125 60.5905 20.75V21.0625C60.5905 21.4323 60.64 21.776 60.739 22.0938C60.8431 22.4062 60.9942 22.6797 61.1921 22.9141C61.39 23.1484 61.6296 23.3333 61.9108 23.4688C62.1921 23.599 62.5124 23.6641 62.8718 23.6641C63.3249 23.6641 63.7285 23.5729 64.0827 23.3906C64.4369 23.2083 64.7442 22.9505 65.0046 22.6172L65.9968 23.5781C65.8145 23.8438 65.5775 24.099 65.2858 24.3438C64.9942 24.5833 64.6374 24.7786 64.2155 24.9297C63.7989 25.0807 63.3145 25.1562 62.7624 25.1562ZM75.7062 20.7578H72.7452V19.2031H75.7062C76.2218 19.2031 76.6384 19.1198 76.9562 18.9531C77.2739 18.7865 77.5056 18.5573 77.6515 18.2656C77.8025 17.9688 77.878 17.6302 77.878 17.25C77.878 16.8906 77.8025 16.5547 77.6515 16.2422C77.5056 15.9245 77.2739 15.6693 76.9562 15.4766C76.6384 15.2839 76.2218 15.1875 75.7062 15.1875H73.3468V25H71.3858V13.625H75.7062C76.5864 13.625 77.3338 13.7812 77.9483 14.0938C78.5681 14.401 79.0395 14.8281 79.3624 15.375C79.6853 15.9167 79.8468 16.5365 79.8468 17.2344C79.8468 17.9688 79.6853 18.599 79.3624 19.125C79.0395 19.651 78.5681 20.0547 77.9483 20.3359C77.3338 20.6172 76.5864 20.7578 75.7062 20.7578ZM83.1077 18.1562V25H81.2249V16.5469H83.0218L83.1077 18.1562ZM85.6936 16.4922L85.678 18.2422C85.5634 18.2214 85.4384 18.2057 85.303 18.1953C85.1728 18.1849 85.0426 18.1797 84.9124 18.1797C84.5895 18.1797 84.3056 18.2266 84.0608 18.3203C83.816 18.4089 83.6103 18.5391 83.4436 18.7109C83.2822 18.8776 83.1572 19.0807 83.0686 19.3203C82.9801 19.5599 82.928 19.8281 82.9124 20.125L82.4827 20.1562C82.4827 19.625 82.5348 19.1328 82.639 18.6797C82.7431 18.2266 82.8994 17.8281 83.1077 17.4844C83.3213 17.1406 83.5869 16.8724 83.9046 16.6797C84.2275 16.487 84.5999 16.3906 85.0218 16.3906C85.1364 16.3906 85.2588 16.401 85.389 16.4219C85.5244 16.4427 85.6259 16.4661 85.6936 16.4922ZM88.689 16.5469V25H86.7983V16.5469H88.689ZM86.6733 14.3281C86.6733 14.0417 86.7671 13.8047 86.9546 13.6172C87.1473 13.4245 87.4129 13.3281 87.7515 13.3281C88.0848 13.3281 88.3478 13.4245 88.5405 13.6172C88.7332 13.8047 88.8296 14.0417 88.8296 14.3281C88.8296 14.6094 88.7332 14.8438 88.5405 15.0312C88.3478 15.2188 88.0848 15.3125 87.7515 15.3125C87.4129 15.3125 87.1473 15.2188 86.9546 15.0312C86.7671 14.8438 86.6733 14.6094 86.6733 14.3281ZM94.0046 23.6562C94.3119 23.6562 94.5879 23.5964 94.8327 23.4766C95.0827 23.3516 95.2832 23.1797 95.4343 22.9609C95.5905 22.7422 95.6765 22.4896 95.6921 22.2031H97.4655C97.4551 22.75 97.2937 23.2474 96.9812 23.6953C96.6687 24.1432 96.2546 24.5 95.739 24.7656C95.2233 25.026 94.653 25.1562 94.028 25.1562C93.3822 25.1562 92.8197 25.0469 92.3405 24.8281C91.8614 24.6042 91.4629 24.2969 91.1452 23.9062C90.8275 23.5156 90.5879 23.0651 90.4265 22.5547C90.2702 22.0443 90.1921 21.4974 90.1921 20.9141V20.6406C90.1921 20.0573 90.2702 19.5104 90.4265 19C90.5879 18.4844 90.8275 18.0312 91.1452 17.6406C91.4629 17.25 91.8614 16.9453 92.3405 16.7266C92.8197 16.5026 93.3796 16.3906 94.0202 16.3906C94.6973 16.3906 95.2911 16.526 95.8015 16.7969C96.3119 17.0625 96.7129 17.4349 97.0046 17.9141C97.3015 18.388 97.4551 18.9401 97.4655 19.5703H95.6921C95.6765 19.2578 95.5983 18.9766 95.4577 18.7266C95.3223 18.4714 95.1296 18.2682 94.8796 18.1172C94.6348 17.9661 94.3405 17.8906 93.9968 17.8906C93.6166 17.8906 93.3015 17.9688 93.0515 18.125C92.8015 18.276 92.6062 18.4844 92.4655 18.75C92.3249 19.0104 92.2233 19.3047 92.1608 19.6328C92.1036 19.9557 92.0749 20.2917 92.0749 20.6406V20.9141C92.0749 21.263 92.1036 21.6016 92.1608 21.9297C92.2181 22.2578 92.3171 22.5521 92.4577 22.8125C92.6036 23.0677 92.8015 23.2734 93.0515 23.4297C93.3015 23.5807 93.6192 23.6562 94.0046 23.6562ZM102.437 25.1562C101.812 25.1562 101.247 25.0547 100.742 24.8516C100.242 24.6432 99.815 24.3542 99.4608 23.9844C99.1119 23.6146 98.8437 23.1797 98.6562 22.6797C98.4687 22.1797 98.3749 21.6406 98.3749 21.0625V20.75C98.3749 20.0885 98.4713 19.4896 98.664 18.9531C98.8567 18.4167 99.1249 17.9583 99.4687 17.5781C99.8124 17.1927 100.219 16.8984 100.687 16.6953C101.156 16.4922 101.664 16.3906 102.211 16.3906C102.815 16.3906 103.344 16.4922 103.797 16.6953C104.25 16.8984 104.625 17.1849 104.922 17.5547C105.224 17.9193 105.448 18.3542 105.594 18.8594C105.745 19.3646 105.82 19.9219 105.82 20.5312V21.3359H99.289V19.9844H103.961V19.8359C103.95 19.4974 103.883 19.1797 103.758 18.8828C103.638 18.5859 103.453 18.3464 103.203 18.1641C102.953 17.9818 102.62 17.8906 102.203 17.8906C101.891 17.8906 101.612 17.9583 101.367 18.0938C101.128 18.224 100.927 18.4141 100.766 18.6641C100.604 18.9141 100.479 19.2161 100.391 19.5703C100.307 19.9193 100.266 20.3125 100.266 20.75V21.0625C100.266 21.4323 100.315 21.776 100.414 22.0938C100.518 22.4062 100.669 22.6797 100.867 22.9141C101.065 23.1484 101.305 23.3333 101.586 23.4688C101.867 23.599 102.187 23.6641 102.547 23.6641C103 23.6641 103.404 23.5729 103.758 23.3906C104.112 23.2083 104.419 22.9505 104.68 22.6172L105.672 23.5781C105.489 23.8438 105.253 24.099 104.961 24.3438C104.669 24.5833 104.312 24.7786 103.891 24.9297C103.474 25.0807 102.989 25.1562 102.437 25.1562ZM111.831 22.7109C111.831 22.5234 111.784 22.3542 111.691 22.2031C111.597 22.0469 111.417 21.9062 111.151 21.7812C110.891 21.6562 110.506 21.5417 109.995 21.4375C109.547 21.3385 109.136 21.2214 108.761 21.0859C108.391 20.9453 108.073 20.776 107.808 20.5781C107.542 20.3802 107.336 20.1458 107.191 19.875C107.045 19.6042 106.972 19.2917 106.972 18.9375C106.972 18.5938 107.047 18.2682 107.198 17.9609C107.349 17.6536 107.566 17.3828 107.847 17.1484C108.128 16.9141 108.469 16.7292 108.87 16.5938C109.276 16.4583 109.73 16.3906 110.23 16.3906C110.938 16.3906 111.545 16.5104 112.05 16.75C112.56 16.9844 112.951 17.3047 113.222 17.7109C113.493 18.112 113.628 18.5651 113.628 19.0703H111.745C111.745 18.8464 111.688 18.638 111.573 18.4453C111.464 18.2474 111.297 18.0885 111.073 17.9688C110.849 17.8438 110.568 17.7812 110.23 17.7812C109.907 17.7812 109.638 17.8333 109.425 17.9375C109.217 18.0365 109.06 18.1667 108.956 18.3281C108.857 18.4896 108.808 18.6667 108.808 18.8594C108.808 19 108.834 19.1276 108.886 19.2422C108.943 19.3516 109.037 19.4531 109.167 19.5469C109.297 19.6354 109.474 19.7188 109.698 19.7969C109.928 19.875 110.214 19.9505 110.558 20.0234C111.204 20.1589 111.758 20.3333 112.222 20.5469C112.691 20.7552 113.05 21.026 113.3 21.3594C113.55 21.6875 113.675 22.1042 113.675 22.6094C113.675 22.9844 113.594 23.3281 113.433 23.6406C113.276 23.9479 113.047 24.2161 112.745 24.4453C112.443 24.6693 112.081 24.8438 111.659 24.9688C111.243 25.0938 110.774 25.1562 110.253 25.1562C109.487 25.1562 108.839 25.0208 108.308 24.75C107.776 24.474 107.373 24.1224 107.097 23.6953C106.826 23.263 106.691 22.8151 106.691 22.3516H108.511C108.532 22.7005 108.628 22.9792 108.8 23.1875C108.977 23.3906 109.196 23.5391 109.456 23.6328C109.722 23.7214 109.995 23.7656 110.276 23.7656C110.615 23.7656 110.899 23.7214 111.128 23.6328C111.357 23.5391 111.532 23.4141 111.651 23.2578C111.771 23.0964 111.831 22.9141 111.831 22.7109Z" fill="#7E7E82"/>
</svg>
