<svg width="233" height="40" viewBox="0 0 233 40" fill="none" xmlns="http://www.w3.org/2000/svg">
<path d="M19.1406 23.0703C19.1406 22.8359 19.1042 22.6276 19.0312 22.4453C18.9635 22.263 18.8411 22.0964 18.6641 21.9453C18.487 21.7943 18.237 21.6484 17.9141 21.5078C17.5964 21.362 17.1901 21.2135 16.6953 21.0625C16.1536 20.8958 15.6536 20.7109 15.1953 20.5078C14.7422 20.2995 14.3464 20.0599 14.0078 19.7891C13.6693 19.513 13.4062 19.1979 13.2188 18.8438C13.0312 18.4844 12.9375 18.0703 12.9375 17.6016C12.9375 17.138 13.0339 16.7161 13.2266 16.3359C13.4245 15.9557 13.7031 15.6276 14.0625 15.3516C14.4271 15.0703 14.8568 14.8542 15.3516 14.7031C15.8464 14.5469 16.3932 14.4688 16.9922 14.4688C17.8359 14.4688 18.5625 14.625 19.1719 14.9375C19.7865 15.25 20.2578 15.6693 20.5859 16.1953C20.9193 16.7214 21.0859 17.3021 21.0859 17.9375H19.1406C19.1406 17.5625 19.0599 17.2318 18.8984 16.9453C18.7422 16.6536 18.5026 16.4245 18.1797 16.2578C17.862 16.0911 17.4583 16.0078 16.9688 16.0078C16.5052 16.0078 16.1198 16.0781 15.8125 16.2188C15.5052 16.3594 15.276 16.5495 15.125 16.7891C14.974 17.0286 14.8984 17.2995 14.8984 17.6016C14.8984 17.8151 14.9479 18.0104 15.0469 18.1875C15.1458 18.3594 15.2969 18.5208 15.5 18.6719C15.7031 18.8177 15.9583 18.9557 16.2656 19.0859C16.5729 19.2161 16.9349 19.3411 17.3516 19.4609C17.9818 19.6484 18.5312 19.8568 19 20.0859C19.4688 20.3099 19.8594 20.5651 20.1719 20.8516C20.4844 21.138 20.7188 21.4635 20.875 21.8281C21.0312 22.1875 21.1094 22.5964 21.1094 23.0547C21.1094 23.5339 21.013 23.9661 20.8203 24.3516C20.6276 24.7318 20.3516 25.0573 19.9922 25.3281C19.638 25.5938 19.2109 25.7995 18.7109 25.9453C18.2161 26.0859 17.6641 26.1562 17.0547 26.1562C16.5078 26.1562 15.9688 26.0833 15.4375 25.9375C14.9115 25.7917 14.4323 25.5703 14 25.2734C13.5677 24.9714 13.224 24.5964 12.9688 24.1484C12.7135 23.6953 12.5859 23.1667 12.5859 22.5625H14.5469C14.5469 22.9323 14.6094 23.2474 14.7344 23.5078C14.8646 23.7682 15.0443 23.9818 15.2734 24.1484C15.5026 24.3099 15.7682 24.4297 16.0703 24.5078C16.3776 24.5859 16.7057 24.625 17.0547 24.625C17.513 24.625 17.8958 24.5599 18.2031 24.4297C18.5156 24.2995 18.75 24.1172 18.9062 23.8828C19.0625 23.6484 19.1406 23.3776 19.1406 23.0703ZM26.1828 26.1562C25.5578 26.1562 24.9927 26.0547 24.4875 25.8516C23.9875 25.6432 23.5604 25.3542 23.2063 24.9844C22.8573 24.6146 22.5891 24.1797 22.4016 23.6797C22.2141 23.1797 22.1203 22.6406 22.1203 22.0625V21.75C22.1203 21.0885 22.2167 20.4896 22.4094 19.9531C22.6021 19.4167 22.8703 18.9583 23.2141 18.5781C23.5578 18.1927 23.9641 17.8984 24.4328 17.6953C24.9016 17.4922 25.4094 17.3906 25.9563 17.3906C26.5604 17.3906 27.0891 17.4922 27.5422 17.6953C27.9953 17.8984 28.3703 18.1849 28.6672 18.5547C28.9693 18.9193 29.1932 19.3542 29.3391 19.8594C29.4901 20.3646 29.5656 20.9219 29.5656 21.5312V22.3359H23.0344V20.9844H27.7063V20.8359C27.6958 20.4974 27.6281 20.1797 27.5031 19.8828C27.3833 19.5859 27.1984 19.3464 26.9484 19.1641C26.6984 18.9818 26.3651 18.8906 25.9484 18.8906C25.6359 18.8906 25.3573 18.9583 25.1125 19.0938C24.8729 19.224 24.6724 19.4141 24.5109 19.6641C24.3495 19.9141 24.2245 20.2161 24.1359 20.5703C24.0526 20.9193 24.0109 21.3125 24.0109 21.75V22.0625C24.0109 22.4323 24.0604 22.776 24.1594 23.0938C24.2635 23.4062 24.4146 23.6797 24.6125 23.9141C24.8104 24.1484 25.05 24.3333 25.3313 24.4688C25.6125 24.599 25.9328 24.6641 26.2922 24.6641C26.7453 24.6641 27.149 24.5729 27.5031 24.3906C27.8573 24.2083 28.1646 23.9505 28.425 23.6172L29.4172 24.5781C29.2349 24.8438 28.9979 25.099 28.7063 25.3438C28.4146 25.5833 28.0578 25.7786 27.6359 25.9297C27.2193 26.0807 26.7349 26.1562 26.1828 26.1562ZM32.725 19.1562V26H30.8422V17.5469H32.6391L32.725 19.1562ZM35.3109 17.4922L35.2953 19.2422C35.1807 19.2214 35.0557 19.2057 34.9203 19.1953C34.7901 19.1849 34.6599 19.1797 34.5297 19.1797C34.2068 19.1797 33.9229 19.2266 33.6781 19.3203C33.4333 19.4089 33.2276 19.5391 33.0609 19.7109C32.8995 19.8776 32.7745 20.0807 32.6859 20.3203C32.5974 20.5599 32.5453 20.8281 32.5297 21.125L32.1 21.1562C32.1 20.625 32.1521 20.1328 32.2563 19.6797C32.3604 19.2266 32.5167 18.8281 32.725 18.4844C32.9385 18.1406 33.2042 17.8724 33.5219 17.6797C33.8448 17.487 34.2172 17.3906 34.6391 17.3906C34.7536 17.3906 34.876 17.401 35.0063 17.4219C35.1417 17.4427 35.2432 17.4661 35.3109 17.4922ZM39.1812 24.5078L41.2516 17.5469H43.2047L40.2672 26H39.0484L39.1812 24.5078ZM37.5953 17.5469L39.7047 24.5391L39.8062 26H38.5875L35.6344 17.5469H37.5953ZM46.1844 17.5469V26H44.2938V17.5469H46.1844ZM44.1688 15.3281C44.1688 15.0417 44.2625 14.8047 44.45 14.6172C44.6427 14.4245 44.9083 14.3281 45.2469 14.3281C45.5802 14.3281 45.8432 14.4245 46.0359 14.6172C46.2286 14.8047 46.325 15.0417 46.325 15.3281C46.325 15.6094 46.2286 15.8438 46.0359 16.0312C45.8432 16.2188 45.5802 16.3125 45.2469 16.3125C44.9083 16.3125 44.6427 16.2188 44.45 16.0312C44.2625 15.8438 44.1688 15.6094 44.1688 15.3281ZM51.5 24.6562C51.8073 24.6562 52.0833 24.5964 52.3281 24.4766C52.5781 24.3516 52.7786 24.1797 52.9297 23.9609C53.0859 23.7422 53.1719 23.4896 53.1875 23.2031H54.9609C54.9505 23.75 54.7891 24.2474 54.4766 24.6953C54.1641 25.1432 53.75 25.5 53.2344 25.7656C52.7188 26.026 52.1484 26.1562 51.5234 26.1562C50.8776 26.1562 50.3151 26.0469 49.8359 25.8281C49.3568 25.6042 48.9583 25.2969 48.6406 24.9062C48.3229 24.5156 48.0833 24.0651 47.9219 23.5547C47.7656 23.0443 47.6875 22.4974 47.6875 21.9141V21.6406C47.6875 21.0573 47.7656 20.5104 47.9219 20C48.0833 19.4844 48.3229 19.0312 48.6406 18.6406C48.9583 18.25 49.3568 17.9453 49.8359 17.7266C50.3151 17.5026 50.875 17.3906 51.5156 17.3906C52.1927 17.3906 52.7865 17.526 53.2969 17.7969C53.8073 18.0625 54.2083 18.4349 54.5 18.9141C54.7969 19.388 54.9505 19.9401 54.9609 20.5703H53.1875C53.1719 20.2578 53.0938 19.9766 52.9531 19.7266C52.8177 19.4714 52.625 19.2682 52.375 19.1172C52.1302 18.9661 51.8359 18.8906 51.4922 18.8906C51.112 18.8906 50.7969 18.9688 50.5469 19.125C50.2969 19.276 50.1016 19.4844 49.9609 19.75C49.8203 20.0104 49.7188 20.3047 49.6562 20.6328C49.599 20.9557 49.5703 21.2917 49.5703 21.6406V21.9141C49.5703 22.263 49.599 22.6016 49.6562 22.9297C49.7135 23.2578 49.8125 23.5521 49.9531 23.8125C50.099 24.0677 50.2969 24.2734 50.5469 24.4297C50.7969 24.5807 51.1146 24.6562 51.5 24.6562ZM59.9328 26.1562C59.3078 26.1562 58.7427 26.0547 58.2375 25.8516C57.7375 25.6432 57.3104 25.3542 56.9562 24.9844C56.6073 24.6146 56.3391 24.1797 56.1516 23.6797C55.9641 23.1797 55.8703 22.6406 55.8703 22.0625V21.75C55.8703 21.0885 55.9667 20.4896 56.1594 19.9531C56.3521 19.4167 56.6203 18.9583 56.9641 18.5781C57.3078 18.1927 57.7141 17.8984 58.1828 17.6953C58.6516 17.4922 59.1594 17.3906 59.7062 17.3906C60.3104 17.3906 60.8391 17.4922 61.2922 17.6953C61.7453 17.8984 62.1203 18.1849 62.4172 18.5547C62.7193 18.9193 62.9432 19.3542 63.0891 19.8594C63.2401 20.3646 63.3156 20.9219 63.3156 21.5312V22.3359H56.7844V20.9844H61.4562V20.8359C61.4458 20.4974 61.3781 20.1797 61.2531 19.8828C61.1333 19.5859 60.9484 19.3464 60.6984 19.1641C60.4484 18.9818 60.1151 18.8906 59.6984 18.8906C59.3859 18.8906 59.1073 18.9583 58.8625 19.0938C58.6229 19.224 58.4224 19.4141 58.2609 19.6641C58.0995 19.9141 57.9745 20.2161 57.8859 20.5703C57.8026 20.9193 57.7609 21.3125 57.7609 21.75V22.0625C57.7609 22.4323 57.8104 22.776 57.9094 23.0938C58.0135 23.4062 58.1646 23.6797 58.3625 23.9141C58.5604 24.1484 58.8 24.3333 59.0812 24.4688C59.3625 24.599 59.6828 24.6641 60.0422 24.6641C60.4953 24.6641 60.899 24.5729 61.2531 24.3906C61.6073 24.2083 61.9146 23.9505 62.175 23.6172L63.1672 24.5781C62.9849 24.8438 62.7479 25.099 62.4562 25.3438C62.1646 25.5833 61.8078 25.7786 61.3859 25.9297C60.9693 26.0807 60.4849 26.1562 59.9328 26.1562ZM75.275 22.2969H77.2281C77.1656 23.0417 76.9573 23.7057 76.6031 24.2891C76.249 24.8672 75.7516 25.3229 75.1109 25.6562C74.4703 25.9896 73.6917 26.1562 72.775 26.1562C72.0719 26.1562 71.4391 26.0312 70.8766 25.7812C70.3141 25.526 69.8323 25.1667 69.4313 24.7031C69.0302 24.2344 68.7229 23.6693 68.5094 23.0078C68.301 22.3464 68.1969 21.6068 68.1969 20.7891V19.8438C68.1969 19.026 68.3036 18.2865 68.5172 17.625C68.7359 16.9635 69.0484 16.3984 69.4547 15.9297C69.8609 15.4557 70.3479 15.0938 70.9156 14.8438C71.4885 14.5938 72.1318 14.4688 72.8453 14.4688C73.7516 14.4688 74.5172 14.6354 75.1422 14.9688C75.7672 15.3021 76.2516 15.763 76.5953 16.3516C76.9443 16.9401 77.1578 17.6146 77.2359 18.375H75.2828C75.2307 17.8854 75.1161 17.4661 74.9391 17.1172C74.7672 16.7682 74.512 16.5026 74.1734 16.3203C73.8349 16.1328 73.3922 16.0391 72.8453 16.0391C72.3974 16.0391 72.0068 16.1224 71.6734 16.2891C71.3401 16.4557 71.0615 16.7005 70.8375 17.0234C70.6135 17.3464 70.4443 17.7448 70.3297 18.2188C70.2203 18.6875 70.1656 19.224 70.1656 19.8281V20.7891C70.1656 21.362 70.2151 21.8828 70.3141 22.3516C70.4182 22.8151 70.5745 23.2135 70.7828 23.5469C70.9964 23.8802 71.2672 24.138 71.5953 24.3203C71.9234 24.5026 72.3167 24.5938 72.775 24.5938C73.3323 24.5938 73.7828 24.5052 74.1266 24.3281C74.4755 24.151 74.7385 23.8932 74.9156 23.5547C75.0979 23.2109 75.2177 22.7917 75.275 22.2969ZM82.3484 26.1562C81.7234 26.1562 81.1583 26.0547 80.6531 25.8516C80.1531 25.6432 79.726 25.3542 79.3719 24.9844C79.0229 24.6146 78.7547 24.1797 78.5672 23.6797C78.3797 23.1797 78.2859 22.6406 78.2859 22.0625V21.75C78.2859 21.0885 78.3823 20.4896 78.575 19.9531C78.7677 19.4167 79.0359 18.9583 79.3797 18.5781C79.7234 18.1927 80.1297 17.8984 80.5984 17.6953C81.0672 17.4922 81.575 17.3906 82.1219 17.3906C82.726 17.3906 83.2547 17.4922 83.7078 17.6953C84.1609 17.8984 84.5359 18.1849 84.8328 18.5547C85.1349 18.9193 85.3589 19.3542 85.5047 19.8594C85.6557 20.3646 85.7312 20.9219 85.7312 21.5312V22.3359H79.2V20.9844H83.8719V20.8359C83.8615 20.4974 83.7937 20.1797 83.6687 19.8828C83.549 19.5859 83.3641 19.3464 83.1141 19.1641C82.8641 18.9818 82.5307 18.8906 82.1141 18.8906C81.8016 18.8906 81.5229 18.9583 81.2781 19.0938C81.0385 19.224 80.838 19.4141 80.6766 19.6641C80.5151 19.9141 80.3901 20.2161 80.3016 20.5703C80.2182 20.9193 80.1766 21.3125 80.1766 21.75V22.0625C80.1766 22.4323 80.226 22.776 80.325 23.0938C80.4292 23.4062 80.5802 23.6797 80.7781 23.9141C80.976 24.1484 81.2156 24.3333 81.4969 24.4688C81.7781 24.599 82.0984 24.6641 82.4578 24.6641C82.9109 24.6641 83.3146 24.5729 83.6687 24.3906C84.0229 24.2083 84.3302 23.9505 84.5906 23.6172L85.5828 24.5781C85.4005 24.8438 85.1635 25.099 84.8719 25.3438C84.5802 25.5833 84.2234 25.7786 83.8016 25.9297C83.3849 26.0807 82.9005 26.1562 82.3484 26.1562ZM88.8672 19.3516V26H86.9844V17.5469H88.7578L88.8672 19.3516ZM88.5312 21.4609L87.9219 21.4531C87.9271 20.8542 88.0104 20.3047 88.1719 19.8047C88.3385 19.3047 88.5677 18.875 88.8594 18.5156C89.1562 18.1562 89.5104 17.8802 89.9219 17.6875C90.3333 17.4896 90.7917 17.3906 91.2969 17.3906C91.7031 17.3906 92.0703 17.4479 92.3984 17.5625C92.7318 17.6719 93.0156 17.8516 93.25 18.1016C93.4896 18.3516 93.6719 18.6771 93.7969 19.0781C93.9219 19.474 93.9844 19.9609 93.9844 20.5391V26H92.0938V20.5312C92.0938 20.125 92.0339 19.8047 91.9141 19.5703C91.7995 19.3307 91.6302 19.1615 91.4062 19.0625C91.1875 18.9583 90.9141 18.9062 90.5859 18.9062C90.263 18.9062 89.974 18.974 89.7188 19.1094C89.4635 19.2448 89.2474 19.4297 89.0703 19.6641C88.8984 19.8984 88.7656 20.1693 88.6719 20.4766C88.5781 20.7839 88.5312 21.112 88.5312 21.4609ZM99.5813 17.5469V18.9219H94.8156V17.5469H99.5813ZM96.1906 15.4766H98.0734V23.6641C98.0734 23.9245 98.1099 24.125 98.1828 24.2656C98.2609 24.401 98.3677 24.4922 98.5031 24.5391C98.6385 24.5859 98.7974 24.6094 98.9797 24.6094C99.1099 24.6094 99.2349 24.6016 99.3547 24.5859C99.4745 24.5703 99.5708 24.5547 99.6438 24.5391L99.6516 25.9766C99.4953 26.0234 99.313 26.0651 99.1047 26.1016C98.9016 26.138 98.6672 26.1562 98.4016 26.1562C97.9693 26.1562 97.5865 26.0807 97.2531 25.9297C96.9198 25.7734 96.6594 25.5208 96.4719 25.1719C96.2844 24.8229 96.1906 24.3594 96.1906 23.7812V15.4766ZM104.561 26.1562C103.936 26.1562 103.371 26.0547 102.866 25.8516C102.366 25.6432 101.939 25.3542 101.584 24.9844C101.235 24.6146 100.967 24.1797 100.78 23.6797C100.592 23.1797 100.498 22.6406 100.498 22.0625V21.75C100.498 21.0885 100.595 20.4896 100.787 19.9531C100.98 19.4167 101.248 18.9583 101.592 18.5781C101.936 18.1927 102.342 17.8984 102.811 17.6953C103.28 17.4922 103.787 17.3906 104.334 17.3906C104.939 17.3906 105.467 17.4922 105.92 17.6953C106.373 17.8984 106.748 18.1849 107.045 18.5547C107.347 18.9193 107.571 19.3542 107.717 19.8594C107.868 20.3646 107.944 20.9219 107.944 21.5312V22.3359H101.412V20.9844H106.084V20.8359C106.074 20.4974 106.006 20.1797 105.881 19.8828C105.761 19.5859 105.577 19.3464 105.327 19.1641C105.077 18.9818 104.743 18.8906 104.327 18.8906C104.014 18.8906 103.735 18.9583 103.491 19.0938C103.251 19.224 103.051 19.4141 102.889 19.6641C102.728 19.9141 102.603 20.2161 102.514 20.5703C102.431 20.9193 102.389 21.3125 102.389 21.75V22.0625C102.389 22.4323 102.439 22.776 102.537 23.0938C102.642 23.4062 102.793 23.6797 102.991 23.9141C103.189 24.1484 103.428 24.3333 103.709 24.4688C103.991 24.599 104.311 24.6641 104.67 24.6641C105.123 24.6641 105.527 24.5729 105.881 24.3906C106.235 24.2083 106.543 23.9505 106.803 23.6172L107.795 24.5781C107.613 24.8438 107.376 25.099 107.084 25.3438C106.793 25.5833 106.436 25.7786 106.014 25.9297C105.597 26.0807 105.113 26.1562 104.561 26.1562ZM111.103 19.1562V26H109.22V17.5469H111.017L111.103 19.1562ZM113.689 17.4922L113.673 19.2422C113.559 19.2214 113.434 19.2057 113.298 19.1953C113.168 19.1849 113.038 19.1797 112.908 19.1797C112.585 19.1797 112.301 19.2266 112.056 19.3203C111.811 19.4089 111.606 19.5391 111.439 19.7109C111.278 19.8776 111.153 20.0807 111.064 20.3203C110.976 20.5599 110.923 20.8281 110.908 21.125L110.478 21.1562C110.478 20.625 110.53 20.1328 110.634 19.6797C110.739 19.2266 110.895 18.8281 111.103 18.4844C111.317 18.1406 111.582 17.8724 111.9 17.6797C112.223 17.487 112.595 17.3906 113.017 17.3906C113.132 17.3906 113.254 17.401 113.384 17.4219C113.52 17.4427 113.621 17.4661 113.689 17.4922ZM125.766 24.4453V26H120.055V24.4453H125.766ZM120.602 14.625V26H118.641V14.625H120.602ZM126.534 21.8672V21.6875C126.534 21.0781 126.623 20.513 126.8 19.9922C126.977 19.4661 127.232 19.0104 127.566 18.625C127.904 18.2344 128.316 17.9323 128.8 17.7188C129.29 17.5 129.842 17.3906 130.456 17.3906C131.076 17.3906 131.628 17.5 132.113 17.7188C132.602 17.9323 133.016 18.2344 133.355 18.625C133.693 19.0104 133.951 19.4661 134.128 19.9922C134.305 20.513 134.394 21.0781 134.394 21.6875V21.8672C134.394 22.4766 134.305 23.0417 134.128 23.5625C133.951 24.0833 133.693 24.5391 133.355 24.9297C133.016 25.3151 132.605 25.6172 132.12 25.8359C131.636 26.0495 131.086 26.1562 130.472 26.1562C129.852 26.1562 129.297 26.0495 128.808 25.8359C128.323 25.6172 127.912 25.3151 127.573 24.9297C127.235 24.5391 126.977 24.0833 126.8 23.5625C126.623 23.0417 126.534 22.4766 126.534 21.8672ZM128.417 21.6875V21.8672C128.417 22.2474 128.456 22.6068 128.534 22.9453C128.613 23.2839 128.735 23.5807 128.902 23.8359C129.068 24.0911 129.282 24.2917 129.542 24.4375C129.803 24.5833 130.113 24.6562 130.472 24.6562C130.821 24.6562 131.123 24.5833 131.378 24.4375C131.639 24.2917 131.852 24.0911 132.019 23.8359C132.185 23.5807 132.308 23.2839 132.386 22.9453C132.469 22.6068 132.511 22.2474 132.511 21.8672V21.6875C132.511 21.3125 132.469 20.9583 132.386 20.625C132.308 20.2865 132.183 19.987 132.011 19.7266C131.844 19.4661 131.631 19.263 131.37 19.1172C131.115 18.9661 130.81 18.8906 130.456 18.8906C130.102 18.8906 129.795 18.9661 129.534 19.1172C129.279 19.263 129.068 19.4661 128.902 19.7266C128.735 19.987 128.613 20.2865 128.534 20.625C128.456 20.9583 128.417 21.3125 128.417 21.6875ZM139.225 24.6562C139.532 24.6562 139.808 24.5964 140.053 24.4766C140.303 24.3516 140.504 24.1797 140.655 23.9609C140.811 23.7422 140.897 23.4896 140.912 23.2031H142.686C142.676 23.75 142.514 24.2474 142.202 24.6953C141.889 25.1432 141.475 25.5 140.959 25.7656C140.444 26.026 139.873 26.1562 139.248 26.1562C138.603 26.1562 138.04 26.0469 137.561 25.8281C137.082 25.6042 136.683 25.2969 136.366 24.9062C136.048 24.5156 135.808 24.0651 135.647 23.5547C135.491 23.0443 135.412 22.4974 135.412 21.9141V21.6406C135.412 21.0573 135.491 20.5104 135.647 20C135.808 19.4844 136.048 19.0312 136.366 18.6406C136.683 18.25 137.082 17.9453 137.561 17.7266C138.04 17.5026 138.6 17.3906 139.241 17.3906C139.918 17.3906 140.511 17.526 141.022 17.7969C141.532 18.0625 141.933 18.4349 142.225 18.9141C142.522 19.388 142.676 19.9401 142.686 20.5703H140.912C140.897 20.2578 140.819 19.9766 140.678 19.7266C140.543 19.4714 140.35 19.2682 140.1 19.1172C139.855 18.9661 139.561 18.8906 139.217 18.8906C138.837 18.8906 138.522 18.9688 138.272 19.125C138.022 19.276 137.827 19.4844 137.686 19.75C137.545 20.0104 137.444 20.3047 137.381 20.6328C137.324 20.9557 137.295 21.2917 137.295 21.6406V21.9141C137.295 22.263 137.324 22.6016 137.381 22.9297C137.439 23.2578 137.537 23.5521 137.678 23.8125C137.824 24.0677 138.022 24.2734 138.272 24.4297C138.522 24.5807 138.84 24.6562 139.225 24.6562ZM148.697 24.3047V20.2734C148.697 19.9714 148.642 19.7109 148.533 19.4922C148.423 19.2734 148.257 19.1042 148.033 18.9844C147.814 18.8646 147.538 18.8047 147.205 18.8047C146.897 18.8047 146.632 18.8568 146.408 18.9609C146.184 19.0651 146.009 19.2057 145.884 19.3828C145.759 19.5599 145.697 19.7604 145.697 19.9844H143.822C143.822 19.651 143.903 19.3281 144.064 19.0156C144.226 18.7031 144.46 18.4245 144.767 18.1797C145.074 17.9349 145.442 17.7422 145.869 17.6016C146.296 17.4609 146.775 17.3906 147.306 17.3906C147.942 17.3906 148.504 17.4974 148.994 17.7109C149.489 17.9245 149.877 18.2474 150.158 18.6797C150.444 19.1068 150.587 19.6432 150.587 20.2891V24.0469C150.587 24.4323 150.614 24.7786 150.666 25.0859C150.723 25.388 150.804 25.651 150.908 25.875V26H148.978C148.89 25.7969 148.819 25.5391 148.767 25.2266C148.72 24.9089 148.697 24.6016 148.697 24.3047ZM148.97 20.8594L148.986 22.0234H147.634C147.285 22.0234 146.978 22.0573 146.712 22.125C146.447 22.1875 146.226 22.2812 146.048 22.4062C145.871 22.5312 145.739 22.6823 145.65 22.8594C145.561 23.0365 145.517 23.237 145.517 23.4609C145.517 23.6849 145.569 23.8906 145.673 24.0781C145.778 24.2604 145.929 24.4036 146.127 24.5078C146.33 24.612 146.574 24.6641 146.861 24.6641C147.246 24.6641 147.582 24.5859 147.869 24.4297C148.16 24.2682 148.39 24.0729 148.556 23.8438C148.723 23.6094 148.811 23.388 148.822 23.1797L149.431 24.0156C149.369 24.2292 149.262 24.4583 149.111 24.7031C148.96 24.9479 148.762 25.1823 148.517 25.4062C148.278 25.625 147.989 25.8047 147.65 25.9453C147.317 26.0859 146.931 26.1562 146.494 26.1562C145.942 26.1562 145.449 26.0469 145.017 25.8281C144.585 25.6042 144.246 25.3047 144.002 24.9297C143.757 24.5495 143.634 24.1198 143.634 23.6406C143.634 23.1927 143.718 22.7969 143.884 22.4531C144.056 22.1042 144.306 21.8125 144.634 21.5781C144.968 21.3438 145.374 21.1667 145.853 21.0469C146.332 20.9219 146.879 20.8594 147.494 20.8594H148.97ZM156.231 17.5469V18.9219H151.466V17.5469H156.231ZM152.841 15.4766H154.723V23.6641C154.723 23.9245 154.76 24.125 154.833 24.2656C154.911 24.401 155.018 24.4922 155.153 24.5391C155.289 24.5859 155.447 24.6094 155.63 24.6094C155.76 24.6094 155.885 24.6016 156.005 24.5859C156.124 24.5703 156.221 24.5547 156.294 24.5391L156.302 25.9766C156.145 26.0234 155.963 26.0651 155.755 26.1016C155.552 26.138 155.317 26.1562 155.052 26.1562C154.619 26.1562 154.236 26.0807 153.903 25.9297C153.57 25.7734 153.309 25.5208 153.122 25.1719C152.934 24.8229 152.841 24.3594 152.841 23.7812V15.4766ZM159.5 17.5469V26H157.609V17.5469H159.5ZM157.484 15.3281C157.484 15.0417 157.578 14.8047 157.766 14.6172C157.958 14.4245 158.224 14.3281 158.562 14.3281C158.896 14.3281 159.159 14.4245 159.352 14.6172C159.544 14.8047 159.641 15.0417 159.641 15.3281C159.641 15.6094 159.544 15.8438 159.352 16.0312C159.159 16.2188 158.896 16.3125 158.562 16.3125C158.224 16.3125 157.958 16.2188 157.766 16.0312C157.578 15.8438 157.484 15.6094 157.484 15.3281ZM161.003 21.8672V21.6875C161.003 21.0781 161.092 20.513 161.269 19.9922C161.446 19.4661 161.701 19.0104 162.034 18.625C162.373 18.2344 162.784 17.9323 163.269 17.7188C163.758 17.5 164.31 17.3906 164.925 17.3906C165.545 17.3906 166.097 17.5 166.581 17.7188C167.071 17.9323 167.485 18.2344 167.823 18.625C168.162 19.0104 168.42 19.4661 168.597 19.9922C168.774 20.513 168.863 21.0781 168.863 21.6875V21.8672C168.863 22.4766 168.774 23.0417 168.597 23.5625C168.42 24.0833 168.162 24.5391 167.823 24.9297C167.485 25.3151 167.073 25.6172 166.589 25.8359C166.105 26.0495 165.555 26.1562 164.941 26.1562C164.321 26.1562 163.766 26.0495 163.277 25.8359C162.792 25.6172 162.381 25.3151 162.042 24.9297C161.704 24.5391 161.446 24.0833 161.269 23.5625C161.092 23.0417 161.003 22.4766 161.003 21.8672ZM162.886 21.6875V21.8672C162.886 22.2474 162.925 22.6068 163.003 22.9453C163.081 23.2839 163.204 23.5807 163.37 23.8359C163.537 24.0911 163.751 24.2917 164.011 24.4375C164.271 24.5833 164.581 24.6562 164.941 24.6562C165.29 24.6562 165.592 24.5833 165.847 24.4375C166.107 24.2917 166.321 24.0911 166.488 23.8359C166.654 23.5807 166.777 23.2839 166.855 22.9453C166.938 22.6068 166.98 22.2474 166.98 21.8672V21.6875C166.98 21.3125 166.938 20.9583 166.855 20.625C166.777 20.2865 166.652 19.987 166.48 19.7266C166.313 19.4661 166.099 19.263 165.839 19.1172C165.584 18.9661 165.279 18.8906 164.925 18.8906C164.571 18.8906 164.264 18.9661 164.003 19.1172C163.748 19.263 163.537 19.4661 163.37 19.7266C163.204 19.987 163.081 20.2865 163.003 20.625C162.925 20.9583 162.886 21.3125 162.886 21.6875ZM172.108 19.3516V26H170.225V17.5469H171.998L172.108 19.3516ZM171.772 21.4609L171.163 21.4531C171.168 20.8542 171.251 20.3047 171.413 19.8047C171.579 19.3047 171.808 18.875 172.1 18.5156C172.397 18.1562 172.751 17.8802 173.163 17.6875C173.574 17.4896 174.032 17.3906 174.538 17.3906C174.944 17.3906 175.311 17.4479 175.639 17.5625C175.972 17.6719 176.256 17.8516 176.491 18.1016C176.73 18.3516 176.913 18.6771 177.038 19.0781C177.163 19.474 177.225 19.9609 177.225 20.5391V26H175.334V20.5312C175.334 20.125 175.274 19.8047 175.155 19.5703C175.04 19.3307 174.871 19.1615 174.647 19.0625C174.428 18.9583 174.155 18.9062 173.827 18.9062C173.504 18.9062 173.215 18.974 172.959 19.1094C172.704 19.2448 172.488 19.4297 172.311 19.6641C172.139 19.8984 172.006 20.1693 171.913 20.4766C171.819 20.7839 171.772 21.112 171.772 21.4609ZM183.689 23.7109C183.689 23.5234 183.642 23.3542 183.548 23.2031C183.455 23.0469 183.275 22.9062 183.009 22.7812C182.749 22.6562 182.364 22.5417 181.853 22.4375C181.405 22.3385 180.994 22.2214 180.619 22.0859C180.249 21.9453 179.931 21.776 179.666 21.5781C179.4 21.3802 179.194 21.1458 179.048 20.875C178.903 20.6042 178.83 20.2917 178.83 19.9375C178.83 19.5938 178.905 19.2682 179.056 18.9609C179.207 18.6536 179.423 18.3828 179.705 18.1484C179.986 17.9141 180.327 17.7292 180.728 17.5938C181.134 17.4583 181.587 17.3906 182.087 17.3906C182.796 17.3906 183.403 17.5104 183.908 17.75C184.418 17.9844 184.809 18.3047 185.08 18.7109C185.351 19.112 185.486 19.5651 185.486 20.0703H183.603C183.603 19.8464 183.546 19.638 183.431 19.4453C183.322 19.2474 183.155 19.0885 182.931 18.9688C182.707 18.8438 182.426 18.7812 182.087 18.7812C181.765 18.7812 181.496 18.8333 181.283 18.9375C181.074 19.0365 180.918 19.1667 180.814 19.3281C180.715 19.4896 180.666 19.6667 180.666 19.8594C180.666 20 180.692 20.1276 180.744 20.2422C180.801 20.3516 180.895 20.4531 181.025 20.5469C181.155 20.6354 181.332 20.7188 181.556 20.7969C181.785 20.875 182.072 20.9505 182.416 21.0234C183.061 21.1589 183.616 21.3333 184.08 21.5469C184.548 21.7552 184.908 22.026 185.158 22.3594C185.408 22.6875 185.533 23.1042 185.533 23.6094C185.533 23.9844 185.452 24.3281 185.291 24.6406C185.134 24.9479 184.905 25.2161 184.603 25.4453C184.301 25.6693 183.939 25.8438 183.517 25.9688C183.101 26.0938 182.632 26.1562 182.111 26.1562C181.345 26.1562 180.697 26.0208 180.166 25.75C179.634 25.474 179.231 25.1224 178.955 24.6953C178.684 24.263 178.548 23.8151 178.548 23.3516H180.369C180.39 23.7005 180.486 23.9792 180.658 24.1875C180.835 24.3906 181.054 24.5391 181.314 24.6328C181.58 24.7214 181.853 24.7656 182.134 24.7656C182.473 24.7656 182.757 24.7214 182.986 24.6328C183.215 24.5391 183.39 24.4141 183.509 24.2578C183.629 24.0964 183.689 23.9141 183.689 23.7109Z" fill="#7E7E82"/>
</svg>
