<svg width="156" height="40" viewBox="0 0 156 40" fill="none" xmlns="http://www.w3.org/2000/svg">
<path d="M30.2751 22.0703C30.2751 21.8359 30.2387 21.6276 30.1658 21.4453C30.0981 21.263 29.9757 21.0964 29.7986 20.9453C29.6215 20.7943 29.3715 20.6484 29.0486 20.5078C28.7309 20.362 28.3246 20.2135 27.8298 20.0625C27.2882 19.8958 26.7882 19.7109 26.3298 19.5078C25.8767 19.2995 25.4809 19.0599 25.1423 18.7891C24.8038 18.513 24.5408 18.1979 24.3533 17.8438C24.1658 17.4844 24.072 17.0703 24.072 16.6016C24.072 16.138 24.1684 15.7161 24.3611 15.3359C24.559 14.9557 24.8376 14.6276 25.197 14.3516C25.5616 14.0703 25.9913 13.8542 26.4861 13.7031C26.9809 13.5469 27.5278 13.4688 28.1267 13.4688C28.9705 13.4688 29.697 13.625 30.3064 13.9375C30.921 14.25 31.3923 14.6693 31.7205 15.1953C32.0538 15.7214 32.2205 16.3021 32.2205 16.9375H30.2751C30.2751 16.5625 30.1944 16.2318 30.033 15.9453C29.8767 15.6536 29.6371 15.4245 29.3142 15.2578C28.9965 15.0911 28.5929 15.0078 28.1033 15.0078C27.6397 15.0078 27.2543 15.0781 26.947 15.2188C26.6397 15.3594 26.4106 15.5495 26.2595 15.7891C26.1085 16.0286 26.033 16.2995 26.033 16.6016C26.033 16.8151 26.0824 17.0104 26.1814 17.1875C26.2804 17.3594 26.4314 17.5208 26.6345 17.6719C26.8376 17.8177 27.0929 17.9557 27.4001 18.0859C27.7074 18.2161 28.0694 18.3411 28.4861 18.4609C29.1163 18.6484 29.6658 18.8568 30.1345 19.0859C30.6033 19.3099 30.9939 19.5651 31.3064 19.8516C31.6189 20.138 31.8533 20.4635 32.0095 20.8281C32.1658 21.1875 32.2439 21.5964 32.2439 22.0547C32.2439 22.5339 32.1475 22.9661 31.9548 23.3516C31.7621 23.7318 31.4861 24.0573 31.1267 24.3281C30.7725 24.5938 30.3455 24.7995 29.8455 24.9453C29.3507 25.0859 28.7986 25.1562 28.1892 25.1562C27.6423 25.1562 27.1033 25.0833 26.572 24.9375C26.046 24.7917 25.5668 24.5703 25.1345 24.2734C24.7022 23.9714 24.3585 23.5964 24.1033 23.1484C23.8481 22.6953 23.7205 22.1667 23.7205 21.5625H25.6814C25.6814 21.9323 25.7439 22.2474 25.8689 22.5078C25.9991 22.7682 26.1788 22.9818 26.408 23.1484C26.6371 23.3099 26.9028 23.4297 27.2048 23.5078C27.5121 23.5859 27.8403 23.625 28.1892 23.625C28.6475 23.625 29.0304 23.5599 29.3376 23.4297C29.6501 23.2995 29.8845 23.1172 30.0408 22.8828C30.197 22.6484 30.2751 22.3776 30.2751 22.0703ZM35.4814 18.1719V28.25H33.5986V16.5469H35.333L35.4814 18.1719ZM40.9892 20.6953V20.8594C40.9892 21.474 40.9163 22.0443 40.7705 22.5703C40.6298 23.0911 40.4189 23.5469 40.1376 23.9375C39.8616 24.3229 39.5205 24.6224 39.1142 24.8359C38.708 25.0495 38.2392 25.1562 37.708 25.1562C37.1819 25.1562 36.721 25.0599 36.3251 24.8672C35.9345 24.6693 35.6038 24.3906 35.333 24.0312C35.0621 23.6719 34.8434 23.25 34.6767 22.7656C34.5153 22.276 34.4007 21.7396 34.333 21.1562V20.5234C34.4007 19.9036 34.5153 19.3411 34.6767 18.8359C34.8434 18.3307 35.0621 17.8958 35.333 17.5312C35.6038 17.1667 35.9345 16.8854 36.3251 16.6875C36.7158 16.4896 37.1715 16.3906 37.6923 16.3906C38.2236 16.3906 38.6949 16.4948 39.1064 16.7031C39.5179 16.9062 39.8642 17.1979 40.1455 17.5781C40.4267 17.9531 40.6376 18.4062 40.7783 18.9375C40.9189 19.4635 40.9892 20.0495 40.9892 20.6953ZM39.1064 20.8594V20.6953C39.1064 20.3047 39.0699 19.9427 38.997 19.6094C38.9241 19.2708 38.8095 18.974 38.6533 18.7188C38.497 18.4635 38.2965 18.2656 38.0517 18.125C37.8121 17.9792 37.5231 17.9062 37.1845 17.9062C36.8512 17.9062 36.5647 17.9635 36.3251 18.0781C36.0856 18.1875 35.885 18.3411 35.7236 18.5391C35.5621 18.737 35.4371 18.9688 35.3486 19.2344C35.26 19.4948 35.1975 19.7786 35.1611 20.0859V21.6016C35.2236 21.9766 35.3304 22.3203 35.4814 22.6328C35.6324 22.9453 35.846 23.1953 36.122 23.3828C36.4033 23.5651 36.7626 23.6562 37.2001 23.6562C37.5387 23.6562 37.8278 23.5833 38.0673 23.4375C38.3069 23.2917 38.5022 23.0911 38.6533 22.8359C38.8095 22.5755 38.9241 22.276 38.997 21.9375C39.0699 21.599 39.1064 21.2396 39.1064 20.8594ZM46.1173 25.1562C45.4923 25.1562 44.9272 25.0547 44.422 24.8516C43.922 24.6432 43.4949 24.3542 43.1408 23.9844C42.7918 23.6146 42.5236 23.1797 42.3361 22.6797C42.1486 22.1797 42.0548 21.6406 42.0548 21.0625V20.75C42.0548 20.0885 42.1512 19.4896 42.3439 18.9531C42.5366 18.4167 42.8048 17.9583 43.1486 17.5781C43.4923 17.1927 43.8986 16.8984 44.3673 16.6953C44.8361 16.4922 45.3439 16.3906 45.8908 16.3906C46.4949 16.3906 47.0236 16.4922 47.4767 16.6953C47.9298 16.8984 48.3048 17.1849 48.6017 17.5547C48.9038 17.9193 49.1278 18.3542 49.2736 18.8594C49.4246 19.3646 49.5001 19.9219 49.5001 20.5312V21.3359H42.9689V19.9844H47.6408V19.8359C47.6304 19.4974 47.5626 19.1797 47.4376 18.8828C47.3179 18.5859 47.133 18.3464 46.883 18.1641C46.633 17.9818 46.2996 17.8906 45.883 17.8906C45.5705 17.8906 45.2918 17.9583 45.047 18.0938C44.8074 18.224 44.6069 18.4141 44.4455 18.6641C44.284 18.9141 44.159 19.2161 44.0705 19.5703C43.9871 19.9193 43.9455 20.3125 43.9455 20.75V21.0625C43.9455 21.4323 43.9949 21.776 44.0939 22.0938C44.1981 22.4062 44.3491 22.6797 44.547 22.9141C44.7449 23.1484 44.9845 23.3333 45.2658 23.4688C45.547 23.599 45.8673 23.6641 46.2267 23.6641C46.6798 23.6641 47.0835 23.5729 47.4376 23.3906C47.7918 23.2083 48.0991 22.9505 48.3595 22.6172L49.3517 23.5781C49.1694 23.8438 48.9324 24.099 48.6408 24.3438C48.3491 24.5833 47.9923 24.7786 47.5705 24.9297C47.1538 25.0807 46.6694 25.1562 46.1173 25.1562ZM54.222 23.6562C54.5293 23.6562 54.8054 23.5964 55.0501 23.4766C55.3001 23.3516 55.5007 23.1797 55.6517 22.9609C55.808 22.7422 55.8939 22.4896 55.9095 22.2031H57.683C57.6725 22.75 57.5111 23.2474 57.1986 23.6953C56.8861 24.1432 56.472 24.5 55.9564 24.7656C55.4408 25.026 54.8705 25.1562 54.2455 25.1562C53.5996 25.1562 53.0371 25.0469 52.558 24.8281C52.0788 24.6042 51.6804 24.2969 51.3626 23.9062C51.0449 23.5156 50.8054 23.0651 50.6439 22.5547C50.4876 22.0443 50.4095 21.4974 50.4095 20.9141V20.6406C50.4095 20.0573 50.4876 19.5104 50.6439 19C50.8054 18.4844 51.0449 18.0312 51.3626 17.6406C51.6804 17.25 52.0788 16.9453 52.558 16.7266C53.0371 16.5026 53.597 16.3906 54.2376 16.3906C54.9147 16.3906 55.5085 16.526 56.0189 16.7969C56.5293 17.0625 56.9304 17.4349 57.222 17.9141C57.5189 18.388 57.6725 18.9401 57.683 19.5703H55.9095C55.8939 19.2578 55.8158 18.9766 55.6751 18.7266C55.5397 18.4714 55.347 18.2682 55.097 18.1172C54.8522 17.9661 54.558 17.8906 54.2142 17.8906C53.834 17.8906 53.5189 17.9688 53.2689 18.125C53.0189 18.276 52.8236 18.4844 52.683 18.75C52.5423 19.0104 52.4408 19.3047 52.3783 19.6328C52.321 19.9557 52.2923 20.2917 52.2923 20.6406V20.9141C52.2923 21.263 52.321 21.6016 52.3783 21.9297C52.4356 22.2578 52.5345 22.5521 52.6751 22.8125C52.821 23.0677 53.0189 23.2734 53.2689 23.4297C53.5189 23.5807 53.8366 23.6562 54.222 23.6562ZM60.9439 16.5469V25H59.0533V16.5469H60.9439ZM58.9283 14.3281C58.9283 14.0417 59.022 13.8047 59.2095 13.6172C59.4022 13.4245 59.6679 13.3281 60.0064 13.3281C60.3397 13.3281 60.6028 13.4245 60.7955 13.6172C60.9882 13.8047 61.0845 14.0417 61.0845 14.3281C61.0845 14.6094 60.9882 14.8438 60.7955 15.0312C60.6028 15.2188 60.3397 15.3125 60.0064 15.3125C59.6679 15.3125 59.4022 15.2188 59.2095 15.0312C59.022 14.8438 58.9283 14.6094 58.9283 14.3281ZM67.572 23.3047V19.2734C67.572 18.9714 67.5173 18.7109 67.408 18.4922C67.2986 18.2734 67.1319 18.1042 66.908 17.9844C66.6892 17.8646 66.4132 17.8047 66.0798 17.8047C65.7725 17.8047 65.5069 17.8568 65.283 17.9609C65.059 18.0651 64.8845 18.2057 64.7595 18.3828C64.6345 18.5599 64.572 18.7604 64.572 18.9844H62.697C62.697 18.651 62.7778 18.3281 62.9392 18.0156C63.1007 17.7031 63.335 17.4245 63.6423 17.1797C63.9496 16.9349 64.3168 16.7422 64.7439 16.6016C65.171 16.4609 65.6501 16.3906 66.1814 16.3906C66.8168 16.3906 67.3793 16.4974 67.8689 16.7109C68.3637 16.9245 68.7517 17.2474 69.033 17.6797C69.3194 18.1068 69.4626 18.6432 69.4626 19.2891V23.0469C69.4626 23.4323 69.4887 23.7786 69.5408 24.0859C69.5981 24.388 69.6788 24.651 69.783 24.875V25H67.8533C67.7647 24.7969 67.6944 24.5391 67.6423 24.2266C67.5955 23.9089 67.572 23.6016 67.572 23.3047ZM67.8455 19.8594L67.8611 21.0234H66.5095C66.1606 21.0234 65.8533 21.0573 65.5876 21.125C65.322 21.1875 65.1007 21.2812 64.9236 21.4062C64.7465 21.5312 64.6137 21.6823 64.5251 21.8594C64.4366 22.0365 64.3923 22.237 64.3923 22.4609C64.3923 22.6849 64.4444 22.8906 64.5486 23.0781C64.6528 23.2604 64.8038 23.4036 65.0017 23.5078C65.2048 23.612 65.4496 23.6641 65.7361 23.6641C66.1215 23.6641 66.4574 23.5859 66.7439 23.4297C67.0356 23.2682 67.2647 23.0729 67.4314 22.8438C67.5981 22.6094 67.6866 22.388 67.697 22.1797L68.3064 23.0156C68.2439 23.2292 68.1371 23.4583 67.9861 23.7031C67.835 23.9479 67.6371 24.1823 67.3923 24.4062C67.1528 24.625 66.8637 24.8047 66.5251 24.9453C66.1918 25.0859 65.8064 25.1562 65.3689 25.1562C64.8168 25.1562 64.3246 25.0469 63.8923 24.8281C63.46 24.6042 63.1215 24.3047 62.8767 23.9297C62.6319 23.5495 62.5095 23.1198 62.5095 22.6406C62.5095 22.1927 62.5929 21.7969 62.7595 21.4531C62.9314 21.1042 63.1814 20.8125 63.5095 20.5781C63.8429 20.3438 64.2491 20.1667 64.7283 20.0469C65.2074 19.9219 65.7543 19.8594 66.3689 19.8594H67.8455ZM73.247 13V25H71.3564V13H73.247ZM83.4017 20.7578H80.4408V19.2031H83.4017C83.9173 19.2031 84.334 19.1198 84.6517 18.9531C84.9694 18.7865 85.2012 18.5573 85.347 18.2656C85.4981 17.9688 85.5736 17.6302 85.5736 17.25C85.5736 16.8906 85.4981 16.5547 85.347 16.2422C85.2012 15.9245 84.9694 15.6693 84.6517 15.4766C84.334 15.2839 83.9173 15.1875 83.4017 15.1875H81.0423V25H79.0814V13.625H83.4017C84.2819 13.625 85.0293 13.7812 85.6439 14.0938C86.2637 14.401 86.735 14.8281 87.058 15.375C87.3809 15.9167 87.5423 16.5365 87.5423 17.2344C87.5423 17.9688 87.3809 18.599 87.058 19.125C86.735 19.651 86.2637 20.0547 85.6439 20.3359C85.0293 20.6172 84.2819 20.7578 83.4017 20.7578ZM90.8033 18.1562V25H88.9205V16.5469H90.7173L90.8033 18.1562ZM93.3892 16.4922L93.3736 18.2422C93.259 18.2214 93.134 18.2057 92.9986 18.1953C92.8684 18.1849 92.7382 18.1797 92.608 18.1797C92.285 18.1797 92.0012 18.2266 91.7564 18.3203C91.5116 18.4089 91.3059 18.5391 91.1392 18.7109C90.9777 18.8776 90.8527 19.0807 90.7642 19.3203C90.6757 19.5599 90.6236 19.8281 90.608 20.125L90.1783 20.1562C90.1783 19.625 90.2304 19.1328 90.3345 18.6797C90.4387 18.2266 90.5949 17.8281 90.8033 17.4844C91.0168 17.1406 91.2824 16.8724 91.6001 16.6797C91.9231 16.487 92.2955 16.3906 92.7173 16.3906C92.8319 16.3906 92.9543 16.401 93.0845 16.4219C93.2199 16.4427 93.3215 16.4661 93.3892 16.4922ZM96.3845 16.5469V25H94.4939V16.5469H96.3845ZM94.3689 14.3281C94.3689 14.0417 94.4626 13.8047 94.6501 13.6172C94.8429 13.4245 95.1085 13.3281 95.447 13.3281C95.7804 13.3281 96.0434 13.4245 96.2361 13.6172C96.4288 13.8047 96.5251 14.0417 96.5251 14.3281C96.5251 14.6094 96.4288 14.8438 96.2361 15.0312C96.0434 15.2188 95.7804 15.3125 95.447 15.3125C95.1085 15.3125 94.8429 15.2188 94.6501 15.0312C94.4626 14.8438 94.3689 14.6094 94.3689 14.3281ZM101.7 23.6562C102.007 23.6562 102.283 23.5964 102.528 23.4766C102.778 23.3516 102.979 23.1797 103.13 22.9609C103.286 22.7422 103.372 22.4896 103.388 22.2031H105.161C105.151 22.75 104.989 23.2474 104.677 23.6953C104.364 24.1432 103.95 24.5 103.435 24.7656C102.919 25.026 102.349 25.1562 101.724 25.1562C101.078 25.1562 100.515 25.0469 100.036 24.8281C99.5569 24.6042 99.1585 24.2969 98.8408 23.9062C98.5231 23.5156 98.2835 23.0651 98.122 22.5547C97.9658 22.0443 97.8876 21.4974 97.8876 20.9141V20.6406C97.8876 20.0573 97.9658 19.5104 98.122 19C98.2835 18.4844 98.5231 18.0312 98.8408 17.6406C99.1585 17.25 99.5569 16.9453 100.036 16.7266C100.515 16.5026 101.075 16.3906 101.716 16.3906C102.393 16.3906 102.987 16.526 103.497 16.7969C104.007 17.0625 104.408 17.4349 104.7 17.9141C104.997 18.388 105.151 18.9401 105.161 19.5703H103.388C103.372 19.2578 103.294 18.9766 103.153 18.7266C103.018 18.4714 102.825 18.2682 102.575 18.1172C102.33 17.9661 102.036 17.8906 101.692 17.8906C101.312 17.8906 100.997 17.9688 100.747 18.125C100.497 18.276 100.302 18.4844 100.161 18.75C100.02 19.0104 99.9189 19.3047 99.8564 19.6328C99.7991 19.9557 99.7705 20.2917 99.7705 20.6406V20.9141C99.7705 21.263 99.7991 21.6016 99.8564 21.9297C99.9137 22.2578 100.013 22.5521 100.153 22.8125C100.299 23.0677 100.497 23.2734 100.747 23.4297C100.997 23.5807 101.315 23.6562 101.7 23.6562ZM110.133 25.1562C109.508 25.1562 108.943 25.0547 108.438 24.8516C107.938 24.6432 107.511 24.3542 107.156 23.9844C106.807 23.6146 106.539 23.1797 106.352 22.6797C106.164 22.1797 106.07 21.6406 106.07 21.0625V20.75C106.07 20.0885 106.167 19.4896 106.36 18.9531C106.552 18.4167 106.82 17.9583 107.164 17.5781C107.508 17.1927 107.914 16.8984 108.383 16.6953C108.852 16.4922 109.36 16.3906 109.906 16.3906C110.511 16.3906 111.039 16.4922 111.492 16.6953C111.945 16.8984 112.32 17.1849 112.617 17.5547C112.919 17.9193 113.143 18.3542 113.289 18.8594C113.44 19.3646 113.516 19.9219 113.516 20.5312V21.3359H106.985V19.9844H111.656V19.8359C111.646 19.4974 111.578 19.1797 111.453 18.8828C111.333 18.5859 111.149 18.3464 110.899 18.1641C110.649 17.9818 110.315 17.8906 109.899 17.8906C109.586 17.8906 109.307 17.9583 109.063 18.0938C108.823 18.224 108.623 18.4141 108.461 18.6641C108.3 18.9141 108.175 19.2161 108.086 19.5703C108.003 19.9193 107.961 20.3125 107.961 20.75V21.0625C107.961 21.4323 108.011 21.776 108.11 22.0938C108.214 22.4062 108.365 22.6797 108.563 22.9141C108.761 23.1484 109 23.3333 109.281 23.4688C109.563 23.599 109.883 23.6641 110.242 23.6641C110.695 23.6641 111.099 23.5729 111.453 23.3906C111.807 23.2083 112.115 22.9505 112.375 22.6172L113.367 23.5781C113.185 23.8438 112.948 24.099 112.656 24.3438C112.365 24.5833 112.008 24.7786 111.586 24.9297C111.169 25.0807 110.685 25.1562 110.133 25.1562ZM119.527 22.7109C119.527 22.5234 119.48 22.3542 119.386 22.2031C119.292 22.0469 119.113 21.9062 118.847 21.7812C118.587 21.6562 118.201 21.5417 117.691 21.4375C117.243 21.3385 116.831 21.2214 116.456 21.0859C116.087 20.9453 115.769 20.776 115.503 20.5781C115.238 20.3802 115.032 20.1458 114.886 19.875C114.74 19.6042 114.667 19.2917 114.667 18.9375C114.667 18.5938 114.743 18.2682 114.894 17.9609C115.045 17.6536 115.261 17.3828 115.542 17.1484C115.824 16.9141 116.165 16.7292 116.566 16.5938C116.972 16.4583 117.425 16.3906 117.925 16.3906C118.633 16.3906 119.24 16.5104 119.745 16.75C120.256 16.9844 120.647 17.3047 120.917 17.7109C121.188 18.112 121.324 18.5651 121.324 19.0703H119.441C119.441 18.8464 119.383 18.638 119.269 18.4453C119.16 18.2474 118.993 18.0885 118.769 17.9688C118.545 17.8438 118.264 17.7812 117.925 17.7812C117.602 17.7812 117.334 17.8333 117.12 17.9375C116.912 18.0365 116.756 18.1667 116.652 18.3281C116.553 18.4896 116.503 18.6667 116.503 18.8594C116.503 19 116.529 19.1276 116.581 19.2422C116.639 19.3516 116.732 19.4531 116.863 19.5469C116.993 19.6354 117.17 19.7188 117.394 19.7969C117.623 19.875 117.91 19.9505 118.253 20.0234C118.899 20.1589 119.454 20.3333 119.917 20.5469C120.386 20.7552 120.745 21.026 120.995 21.3594C121.245 21.6875 121.37 22.1042 121.37 22.6094C121.37 22.9844 121.29 23.3281 121.128 23.6406C120.972 23.9479 120.743 24.2161 120.441 24.4453C120.139 24.6693 119.777 24.8438 119.355 24.9688C118.938 25.0938 118.469 25.1562 117.949 25.1562C117.183 25.1562 116.535 25.0208 116.003 24.75C115.472 24.474 115.068 24.1224 114.792 23.6953C114.522 23.263 114.386 22.8151 114.386 22.3516H116.206C116.227 22.7005 116.324 22.9792 116.495 23.1875C116.673 23.3906 116.891 23.5391 117.152 23.6328C117.417 23.7214 117.691 23.7656 117.972 23.7656C118.311 23.7656 118.594 23.7214 118.824 23.6328C119.053 23.5391 119.227 23.4141 119.347 23.2578C119.467 23.0964 119.527 22.9141 119.527 22.7109Z" fill="#7E7E82"/>
<rect x="121" width="19.3123" height="40" fill="url(#paint0_linear_0_1949)"/>
<defs>
<linearGradient id="paint0_linear_0_1949" x1="137.067" y1="3.36103" x2="121" y2="3.36103" gradientUnits="userSpaceOnUse">
<stop offset="0.00036951" stop-color="#F8F8F8"/>
<stop offset="1" stop-color="#F8F8F8" stop-opacity="0.01"/>
</linearGradient>
</defs>
</svg>
