<svg width="248" height="40" viewBox="0 0 248 40" fill="none" xmlns="http://www.w3.org/2000/svg">
<rect x="-1" y="1" width="246" height="38" rx="5" transform="matrix(-1 0 0 1 246 0)" fill="white" stroke="#B8FFEC" stroke-width="2"/>
<path d="M17.8286 13.625H21.8521C22.7166 13.625 23.4536 13.7552 24.063 14.0156C24.6724 14.276 25.1385 14.6615 25.4614 15.1719C25.7896 15.6771 25.9536 16.3021 25.9536 17.0469C25.9536 17.6146 25.8494 18.1146 25.6411 18.5469C25.4328 18.9792 25.1385 19.3438 24.7583 19.6406C24.3781 19.9323 23.925 20.1589 23.3989 20.3203L22.8052 20.6094H19.188L19.1724 19.0547H21.8833C22.3521 19.0547 22.7427 18.9714 23.0552 18.8047C23.3677 18.638 23.6021 18.4115 23.7583 18.125C23.9198 17.8333 24.0005 17.5052 24.0005 17.1406C24.0005 16.7448 23.9224 16.401 23.7661 16.1094C23.6151 15.8125 23.3807 15.5859 23.063 15.4297C22.7453 15.2682 22.3416 15.1875 21.8521 15.1875H19.7896V25H17.8286V13.625ZM24.3208 25L21.6489 19.8906L23.7036 19.8828L26.4146 24.8984V25H24.3208ZM31.2458 25.1562C30.6208 25.1562 30.0557 25.0547 29.5505 24.8516C29.0505 24.6432 28.6234 24.3542 28.2692 23.9844C27.9203 23.6146 27.6521 23.1797 27.4646 22.6797C27.2771 22.1797 27.1833 21.6406 27.1833 21.0625V20.75C27.1833 20.0885 27.2797 19.4896 27.4724 18.9531C27.6651 18.4167 27.9333 17.9583 28.2771 17.5781C28.6208 17.1927 29.0271 16.8984 29.4958 16.6953C29.9646 16.4922 30.4724 16.3906 31.0192 16.3906C31.6234 16.3906 32.1521 16.4922 32.6052 16.6953C33.0583 16.8984 33.4333 17.1849 33.7302 17.5547C34.0323 17.9193 34.2562 18.3542 34.4021 18.8594C34.5531 19.3646 34.6286 19.9219 34.6286 20.5312V21.3359H28.0974V19.9844H32.7692V19.8359C32.7588 19.4974 32.6911 19.1797 32.5661 18.8828C32.4463 18.5859 32.2614 18.3464 32.0114 18.1641C31.7614 17.9818 31.4281 17.8906 31.0114 17.8906C30.6989 17.8906 30.4203 17.9583 30.1755 18.0938C29.9359 18.224 29.7354 18.4141 29.5739 18.6641C29.4125 18.9141 29.2875 19.2161 29.1989 19.5703C29.1156 19.9193 29.0739 20.3125 29.0739 20.75V21.0625C29.0739 21.4323 29.1234 21.776 29.2224 22.0938C29.3265 22.4062 29.4776 22.6797 29.6755 22.9141C29.8734 23.1484 30.113 23.3333 30.3942 23.4688C30.6755 23.599 30.9958 23.6641 31.3552 23.6641C31.8083 23.6641 32.2119 23.5729 32.5661 23.3906C32.9203 23.2083 33.2276 22.9505 33.488 22.6172L34.4802 23.5781C34.2979 23.8438 34.0609 24.099 33.7692 24.3438C33.4776 24.5833 33.1208 24.7786 32.6989 24.9297C32.2823 25.0807 31.7979 25.1562 31.2458 25.1562ZM37.788 18.1719V28.25H35.9052V16.5469H37.6396L37.788 18.1719ZM43.2958 20.6953V20.8594C43.2958 21.474 43.2229 22.0443 43.0771 22.5703C42.9364 23.0911 42.7255 23.5469 42.4442 23.9375C42.1682 24.3229 41.8271 24.6224 41.4208 24.8359C41.0146 25.0495 40.5458 25.1562 40.0146 25.1562C39.4885 25.1562 39.0276 25.0599 38.6317 24.8672C38.2411 24.6693 37.9104 24.3906 37.6396 24.0312C37.3687 23.6719 37.15 23.25 36.9833 22.7656C36.8218 22.276 36.7073 21.7396 36.6396 21.1562V20.5234C36.7073 19.9036 36.8218 19.3411 36.9833 18.8359C37.15 18.3307 37.3687 17.8958 37.6396 17.5312C37.9104 17.1667 38.2411 16.8854 38.6317 16.6875C39.0224 16.4896 39.4781 16.3906 39.9989 16.3906C40.5302 16.3906 41.0015 16.4948 41.413 16.7031C41.8244 16.9062 42.1708 17.1979 42.4521 17.5781C42.7333 17.9531 42.9442 18.4062 43.0849 18.9375C43.2255 19.4635 43.2958 20.0495 43.2958 20.6953ZM41.413 20.8594V20.6953C41.413 20.3047 41.3765 19.9427 41.3036 19.6094C41.2307 19.2708 41.1161 18.974 40.9599 18.7188C40.8036 18.4635 40.6031 18.2656 40.3583 18.125C40.1187 17.9792 39.8297 17.9062 39.4911 17.9062C39.1578 17.9062 38.8713 17.9635 38.6317 18.0781C38.3922 18.1875 38.1916 18.3411 38.0302 18.5391C37.8687 18.737 37.7437 18.9688 37.6552 19.2344C37.5666 19.4948 37.5041 19.7786 37.4677 20.0859V21.6016C37.5302 21.9766 37.6369 22.3203 37.788 22.6328C37.939 22.9453 38.1526 23.1953 38.4286 23.3828C38.7099 23.5651 39.0692 23.6562 39.5067 23.6562C39.8453 23.6562 40.1343 23.5833 40.3739 23.4375C40.6135 23.2917 40.8088 23.0911 40.9599 22.8359C41.1161 22.5755 41.2307 22.276 41.3036 21.9375C41.3765 21.599 41.413 21.2396 41.413 20.8594ZM49.463 23.3047V19.2734C49.463 18.9714 49.4083 18.7109 49.2989 18.4922C49.1896 18.2734 49.0229 18.1042 48.7989 17.9844C48.5802 17.8646 48.3041 17.8047 47.9708 17.8047C47.6635 17.8047 47.3979 17.8568 47.1739 17.9609C46.95 18.0651 46.7755 18.2057 46.6505 18.3828C46.5255 18.5599 46.463 18.7604 46.463 18.9844H44.588C44.588 18.651 44.6687 18.3281 44.8302 18.0156C44.9916 17.7031 45.226 17.4245 45.5333 17.1797C45.8406 16.9349 46.2078 16.7422 46.6349 16.6016C47.0619 16.4609 47.5411 16.3906 48.0724 16.3906C48.7078 16.3906 49.2703 16.4974 49.7599 16.7109C50.2547 16.9245 50.6427 17.2474 50.9239 17.6797C51.2104 18.1068 51.3536 18.6432 51.3536 19.2891V23.0469C51.3536 23.4323 51.3797 23.7786 51.4317 24.0859C51.489 24.388 51.5698 24.651 51.6739 24.875V25H49.7442C49.6557 24.7969 49.5854 24.5391 49.5333 24.2266C49.4864 23.9089 49.463 23.6016 49.463 23.3047ZM49.7364 19.8594L49.7521 21.0234H48.4005C48.0515 21.0234 47.7442 21.0573 47.4786 21.125C47.213 21.1875 46.9916 21.2812 46.8146 21.4062C46.6375 21.5312 46.5047 21.6823 46.4161 21.8594C46.3276 22.0365 46.2833 22.237 46.2833 22.4609C46.2833 22.6849 46.3354 22.8906 46.4396 23.0781C46.5437 23.2604 46.6948 23.4036 46.8927 23.5078C47.0958 23.612 47.3406 23.6641 47.6271 23.6641C48.0125 23.6641 48.3484 23.5859 48.6349 23.4297C48.9265 23.2682 49.1557 23.0729 49.3224 22.8438C49.489 22.6094 49.5776 22.388 49.588 22.1797L50.1974 23.0156C50.1349 23.2292 50.0281 23.4583 49.8771 23.7031C49.726 23.9479 49.5281 24.1823 49.2833 24.4062C49.0437 24.625 48.7547 24.8047 48.4161 24.9453C48.0828 25.0859 47.6974 25.1562 47.2599 25.1562C46.7078 25.1562 46.2156 25.0469 45.7833 24.8281C45.351 24.6042 45.0125 24.3047 44.7677 23.9297C44.5229 23.5495 44.4005 23.1198 44.4005 22.6406C44.4005 22.1927 44.4838 21.7969 44.6505 21.4531C44.8224 21.1042 45.0724 20.8125 45.4005 20.5781C45.7338 20.3438 46.1401 20.1667 46.6192 20.0469C47.0984 19.9219 47.6453 19.8594 48.2599 19.8594H49.7364ZM55.138 16.5469V25H53.2474V16.5469H55.138ZM53.1224 14.3281C53.1224 14.0417 53.2161 13.8047 53.4036 13.6172C53.5963 13.4245 53.8619 13.3281 54.2005 13.3281C54.5338 13.3281 54.7968 13.4245 54.9896 13.6172C55.1823 13.8047 55.2786 14.0417 55.2786 14.3281C55.2786 14.6094 55.1823 14.8438 54.9896 15.0312C54.7968 15.2188 54.5338 15.3125 54.2005 15.3125C53.8619 15.3125 53.5963 15.2188 53.4036 15.0312C53.2161 14.8438 53.1224 14.6094 53.1224 14.3281ZM58.8911 18.1562V25H57.0083V16.5469H58.8052L58.8911 18.1562ZM61.4771 16.4922L61.4614 18.2422C61.3468 18.2214 61.2218 18.2057 61.0864 18.1953C60.9562 18.1849 60.826 18.1797 60.6958 18.1797C60.3729 18.1797 60.089 18.2266 59.8442 18.3203C59.5994 18.4089 59.3937 18.5391 59.2271 18.7109C59.0656 18.8776 58.9406 19.0807 58.8521 19.3203C58.7635 19.5599 58.7114 19.8281 58.6958 20.125L58.2661 20.1562C58.2661 19.625 58.3182 19.1328 58.4224 18.6797C58.5265 18.2266 58.6828 17.8281 58.8911 17.4844C59.1047 17.1406 59.3703 16.8724 59.688 16.6797C60.0109 16.487 60.3833 16.3906 60.8052 16.3906C60.9198 16.3906 61.0422 16.401 61.1724 16.4219C61.3078 16.4427 61.4093 16.4661 61.4771 16.4922ZM66.9411 23.3047V19.2734C66.9411 18.9714 66.8864 18.7109 66.7771 18.4922C66.6677 18.2734 66.501 18.1042 66.2771 17.9844C66.0583 17.8646 65.7823 17.8047 65.4489 17.8047C65.1416 17.8047 64.876 17.8568 64.6521 17.9609C64.4281 18.0651 64.2536 18.2057 64.1286 18.3828C64.0036 18.5599 63.9411 18.7604 63.9411 18.9844H62.0661C62.0661 18.651 62.1468 18.3281 62.3083 18.0156C62.4698 17.7031 62.7041 17.4245 63.0114 17.1797C63.3187 16.9349 63.6859 16.7422 64.113 16.6016C64.5401 16.4609 65.0192 16.3906 65.5505 16.3906C66.1859 16.3906 66.7484 16.4974 67.238 16.7109C67.7328 16.9245 68.1208 17.2474 68.4021 17.6797C68.6885 18.1068 68.8317 18.6432 68.8317 19.2891V23.0469C68.8317 23.4323 68.8578 23.7786 68.9099 24.0859C68.9672 24.388 69.0479 24.651 69.1521 24.875V25H67.2224C67.1338 24.7969 67.0635 24.5391 67.0114 24.2266C66.9646 23.9089 66.9411 23.6016 66.9411 23.3047ZM67.2146 19.8594L67.2302 21.0234H65.8786C65.5297 21.0234 65.2224 21.0573 64.9567 21.125C64.6911 21.1875 64.4698 21.2812 64.2927 21.4062C64.1156 21.5312 63.9828 21.6823 63.8942 21.8594C63.8057 22.0365 63.7614 22.237 63.7614 22.4609C63.7614 22.6849 63.8135 22.8906 63.9177 23.0781C64.0218 23.2604 64.1729 23.4036 64.3708 23.5078C64.5739 23.612 64.8187 23.6641 65.1052 23.6641C65.4906 23.6641 65.8265 23.5859 66.113 23.4297C66.4047 23.2682 66.6338 23.0729 66.8005 22.8438C66.9672 22.6094 67.0557 22.388 67.0661 22.1797L67.6755 23.0156C67.613 23.2292 67.5062 23.4583 67.3552 23.7031C67.2041 23.9479 67.0062 24.1823 66.7614 24.4062C66.5218 24.625 66.2328 24.8047 65.8942 24.9453C65.5609 25.0859 65.1755 25.1562 64.738 25.1562C64.1859 25.1562 63.6937 25.0469 63.2614 24.8281C62.8291 24.6042 62.4906 24.3047 62.2458 23.9297C62.001 23.5495 61.8786 23.1198 61.8786 22.6406C61.8786 22.1927 61.9619 21.7969 62.1286 21.4531C62.3005 21.1042 62.5505 20.8125 62.8786 20.5781C63.2119 20.3438 63.6182 20.1667 64.0974 20.0469C64.5765 19.9219 65.1234 19.8594 65.738 19.8594H67.2146ZM70.6083 13H72.4911V23.1953L72.3114 25H70.6083V13ZM78.0067 20.6953V20.8594C78.0067 21.4844 77.9364 22.0599 77.7958 22.5859C77.6604 23.1068 77.452 23.5599 77.1708 23.9453C76.8948 24.3307 76.551 24.6302 76.1395 24.8438C75.7333 25.0521 75.2619 25.1562 74.7255 25.1562C74.1994 25.1562 73.7411 25.0573 73.3505 24.8594C72.9599 24.6615 72.6317 24.3802 72.3661 24.0156C72.1057 23.651 71.8948 23.2161 71.7333 22.7109C71.5718 22.2057 71.4573 21.6484 71.3895 21.0391V20.5156C71.4573 19.901 71.5718 19.3438 71.7333 18.8438C71.8948 18.3385 72.1057 17.9036 72.3661 17.5391C72.6317 17.1693 72.9573 16.8854 73.3427 16.6875C73.7333 16.4896 74.189 16.3906 74.7099 16.3906C75.2515 16.3906 75.7281 16.4948 76.1395 16.7031C76.5562 16.9115 76.9026 17.2083 77.1786 17.5938C77.4547 17.974 77.6604 18.4271 77.7958 18.9531C77.9364 19.4792 78.0067 20.0599 78.0067 20.6953ZM76.1239 20.8594V20.6953C76.1239 20.3151 76.0927 19.9583 76.0302 19.625C75.9677 19.2865 75.8635 18.9896 75.7177 18.7344C75.577 18.4792 75.3843 18.2786 75.1395 18.1328C74.9 17.9818 74.6005 17.9062 74.2411 17.9062C73.9078 17.9062 73.6213 17.9635 73.3817 18.0781C73.1422 18.1927 72.9416 18.349 72.7802 18.5469C72.6187 18.7448 72.4911 18.974 72.3974 19.2344C72.3088 19.4948 72.2489 19.776 72.2177 20.0781V21.4922C72.2645 21.8828 72.3635 22.2422 72.5145 22.5703C72.6708 22.8932 72.8895 23.1536 73.1708 23.3516C73.452 23.5443 73.814 23.6406 74.2567 23.6406C74.6057 23.6406 74.9 23.5703 75.1395 23.4297C75.3791 23.2891 75.5692 23.0938 75.7099 22.8438C75.8557 22.5885 75.9599 22.2917 76.0224 21.9531C76.0901 21.6146 76.1239 21.25 76.1239 20.8594ZM81.4161 13V25H79.5255V13H81.4161ZM87.0052 25.1562C86.3802 25.1562 85.8151 25.0547 85.3099 24.8516C84.8099 24.6432 84.3828 24.3542 84.0286 23.9844C83.6797 23.6146 83.4114 23.1797 83.2239 22.6797C83.0364 22.1797 82.9427 21.6406 82.9427 21.0625V20.75C82.9427 20.0885 83.039 19.4896 83.2317 18.9531C83.4244 18.4167 83.6927 17.9583 84.0364 17.5781C84.3802 17.1927 84.7864 16.8984 85.2552 16.6953C85.7239 16.4922 86.2317 16.3906 86.7786 16.3906C87.3828 16.3906 87.9114 16.4922 88.3645 16.6953C88.8177 16.8984 89.1927 17.1849 89.4895 17.5547C89.7916 17.9193 90.0156 18.3542 90.1614 18.8594C90.3125 19.3646 90.388 19.9219 90.388 20.5312V21.3359H83.8567V19.9844H88.5286V19.8359C88.5182 19.4974 88.4505 19.1797 88.3255 18.8828C88.2057 18.5859 88.0208 18.3464 87.7708 18.1641C87.5208 17.9818 87.1875 17.8906 86.7708 17.8906C86.4583 17.8906 86.1797 17.9583 85.9349 18.0938C85.6953 18.224 85.4948 18.4141 85.3333 18.6641C85.1718 18.9141 85.0468 19.2161 84.9583 19.5703C84.875 19.9193 84.8333 20.3125 84.8333 20.75V21.0625C84.8333 21.4323 84.8828 21.776 84.9817 22.0938C85.0859 22.4062 85.2369 22.6797 85.4349 22.9141C85.6328 23.1484 85.8724 23.3333 86.1536 23.4688C86.4349 23.599 86.7552 23.6641 87.1145 23.6641C87.5677 23.6641 87.9713 23.5729 88.3255 23.3906C88.6797 23.2083 88.9869 22.9505 89.2474 22.6172L90.2395 23.5781C90.0573 23.8438 89.8203 24.099 89.5286 24.3438C89.2369 24.5833 88.8802 24.7786 88.4583 24.9297C88.0416 25.0807 87.5573 25.1562 87.0052 25.1562ZM98.9333 25H96.5036L96.5192 23.4453H98.9333C99.6364 23.4453 100.225 23.2917 100.699 22.9844C101.178 22.6771 101.537 22.237 101.777 21.6641C102.022 21.0911 102.144 20.4089 102.144 19.6172V19C102.144 18.3854 102.074 17.8411 101.933 17.3672C101.798 16.8932 101.595 16.4948 101.324 16.1719C101.058 15.849 100.73 15.6042 100.34 15.4375C99.9541 15.2708 99.5088 15.1875 99.0036 15.1875H96.4567V13.625H99.0036C99.7588 13.625 100.449 13.7526 101.074 14.0078C101.699 14.2578 102.238 14.6198 102.691 15.0938C103.149 15.5677 103.501 16.1354 103.746 16.7969C103.991 17.4583 104.113 18.1979 104.113 19.0156V19.6172C104.113 20.4349 103.991 21.1745 103.746 21.8359C103.501 22.4974 103.149 23.0651 102.691 23.5391C102.233 24.0078 101.686 24.3698 101.05 24.625C100.42 24.875 99.7146 25 98.9333 25ZM97.5896 13.625V25H95.6286V13.625H97.5896ZM109.421 25.1562C108.796 25.1562 108.231 25.0547 107.725 24.8516C107.225 24.6432 106.798 24.3542 106.444 23.9844C106.095 23.6146 105.827 23.1797 105.64 22.6797C105.452 22.1797 105.358 21.6406 105.358 21.0625V20.75C105.358 20.0885 105.455 19.4896 105.647 18.9531C105.84 18.4167 106.108 17.9583 106.452 17.5781C106.796 17.1927 107.202 16.8984 107.671 16.6953C108.14 16.4922 108.647 16.3906 109.194 16.3906C109.798 16.3906 110.327 16.4922 110.78 16.6953C111.233 16.8984 111.608 17.1849 111.905 17.5547C112.207 17.9193 112.431 18.3542 112.577 18.8594C112.728 19.3646 112.804 19.9219 112.804 20.5312V21.3359H106.272V19.9844H110.944V19.8359C110.934 19.4974 110.866 19.1797 110.741 18.8828C110.621 18.5859 110.436 18.3464 110.186 18.1641C109.936 17.9818 109.603 17.8906 109.186 17.8906C108.874 17.8906 108.595 17.9583 108.35 18.0938C108.111 18.224 107.91 18.4141 107.749 18.6641C107.587 18.9141 107.462 19.2161 107.374 19.5703C107.291 19.9193 107.249 20.3125 107.249 20.75V21.0625C107.249 21.4323 107.298 21.776 107.397 22.0938C107.502 22.4062 107.653 22.6797 107.85 22.9141C108.048 23.1484 108.288 23.3333 108.569 23.4688C108.85 23.599 109.171 23.6641 109.53 23.6641C109.983 23.6641 110.387 23.5729 110.741 23.3906C111.095 23.2083 111.403 22.9505 111.663 22.6172L112.655 23.5781C112.473 23.8438 112.236 24.099 111.944 24.3438C111.653 24.5833 111.296 24.7786 110.874 24.9297C110.457 25.0807 109.973 25.1562 109.421 25.1562ZM116.713 23.5078L118.783 16.5469H120.736L117.799 25H116.58L116.713 23.5078ZM115.127 16.5469L117.236 23.5391L117.338 25H116.119L113.166 16.5469H115.127ZM123.716 16.5469V25H121.825V16.5469H123.716ZM121.7 14.3281C121.7 14.0417 121.794 13.8047 121.982 13.6172C122.174 13.4245 122.44 13.3281 122.779 13.3281C123.112 13.3281 123.375 13.4245 123.568 13.6172C123.76 13.8047 123.857 14.0417 123.857 14.3281C123.857 14.6094 123.76 14.8438 123.568 15.0312C123.375 15.2188 123.112 15.3125 122.779 15.3125C122.44 15.3125 122.174 15.2188 121.982 15.0312C121.794 14.8438 121.7 14.6094 121.7 14.3281ZM129.032 23.6562C129.339 23.6562 129.615 23.5964 129.86 23.4766C130.11 23.3516 130.31 23.1797 130.461 22.9609C130.618 22.7422 130.704 22.4896 130.719 22.2031H132.493C132.482 22.75 132.321 23.2474 132.008 23.6953C131.696 24.1432 131.282 24.5 130.766 24.7656C130.25 25.026 129.68 25.1562 129.055 25.1562C128.409 25.1562 127.847 25.0469 127.368 24.8281C126.889 24.6042 126.49 24.2969 126.172 23.9062C125.855 23.5156 125.615 23.0651 125.454 22.5547C125.297 22.0443 125.219 21.4974 125.219 20.9141V20.6406C125.219 20.0573 125.297 19.5104 125.454 19C125.615 18.4844 125.855 18.0312 126.172 17.6406C126.49 17.25 126.889 16.9453 127.368 16.7266C127.847 16.5026 128.407 16.3906 129.047 16.3906C129.724 16.3906 130.318 16.526 130.829 16.7969C131.339 17.0625 131.74 17.4349 132.032 17.9141C132.329 18.388 132.482 18.9401 132.493 19.5703H130.719C130.704 19.2578 130.625 18.9766 130.485 18.7266C130.349 18.4714 130.157 18.2682 129.907 18.1172C129.662 17.9661 129.368 17.8906 129.024 17.8906C128.644 17.8906 128.329 17.9688 128.079 18.125C127.829 18.276 127.633 18.4844 127.493 18.75C127.352 19.0104 127.25 19.3047 127.188 19.6328C127.131 19.9557 127.102 20.2917 127.102 20.6406V20.9141C127.102 21.263 127.131 21.6016 127.188 21.9297C127.245 22.2578 127.344 22.5521 127.485 22.8125C127.631 23.0677 127.829 23.2734 128.079 23.4297C128.329 23.5807 128.646 23.6562 129.032 23.6562ZM137.465 25.1562C136.84 25.1562 136.274 25.0547 135.769 24.8516C135.269 24.6432 134.842 24.3542 134.488 23.9844C134.139 23.6146 133.871 23.1797 133.683 22.6797C133.496 22.1797 133.402 21.6406 133.402 21.0625V20.75C133.402 20.0885 133.498 19.4896 133.691 18.9531C133.884 18.4167 134.152 17.9583 134.496 17.5781C134.84 17.1927 135.246 16.8984 135.715 16.6953C136.183 16.4922 136.691 16.3906 137.238 16.3906C137.842 16.3906 138.371 16.4922 138.824 16.6953C139.277 16.8984 139.652 17.1849 139.949 17.5547C140.251 17.9193 140.475 18.3542 140.621 18.8594C140.772 19.3646 140.847 19.9219 140.847 20.5312V21.3359H134.316V19.9844H138.988V19.8359C138.978 19.4974 138.91 19.1797 138.785 18.8828C138.665 18.5859 138.48 18.3464 138.23 18.1641C137.98 17.9818 137.647 17.8906 137.23 17.8906C136.918 17.8906 136.639 17.9583 136.394 18.0938C136.155 18.224 135.954 18.4141 135.793 18.6641C135.631 18.9141 135.506 19.2161 135.418 19.5703C135.334 19.9193 135.293 20.3125 135.293 20.75V21.0625C135.293 21.4323 135.342 21.776 135.441 22.0938C135.545 22.4062 135.696 22.6797 135.894 22.9141C136.092 23.1484 136.332 23.3333 136.613 23.4688C136.894 23.599 137.215 23.6641 137.574 23.6641C138.027 23.6641 138.431 23.5729 138.785 23.3906C139.139 23.2083 139.446 22.9505 139.707 22.6172L140.699 23.5781C140.517 23.8438 140.28 24.099 139.988 24.3438C139.696 24.5833 139.34 24.7786 138.918 24.9297C138.501 25.0807 138.017 25.1562 137.465 25.1562ZM146.858 22.7109C146.858 22.5234 146.811 22.3542 146.718 22.2031C146.624 22.0469 146.444 21.9062 146.179 21.7812C145.918 21.6562 145.533 21.5417 145.022 21.4375C144.574 21.3385 144.163 21.2214 143.788 21.0859C143.418 20.9453 143.1 20.776 142.835 20.5781C142.569 20.3802 142.364 20.1458 142.218 19.875C142.072 19.6042 141.999 19.2917 141.999 18.9375C141.999 18.5938 142.074 18.2682 142.225 17.9609C142.377 17.6536 142.593 17.3828 142.874 17.1484C143.155 16.9141 143.496 16.7292 143.897 16.5938C144.304 16.4583 144.757 16.3906 145.257 16.3906C145.965 16.3906 146.572 16.5104 147.077 16.75C147.587 16.9844 147.978 17.3047 148.249 17.7109C148.52 18.112 148.655 18.5651 148.655 19.0703H146.772C146.772 18.8464 146.715 18.638 146.6 18.4453C146.491 18.2474 146.324 18.0885 146.1 17.9688C145.877 17.8438 145.595 17.7812 145.257 17.7812C144.934 17.7812 144.666 17.8333 144.452 17.9375C144.244 18.0365 144.087 18.1667 143.983 18.3281C143.884 18.4896 143.835 18.6667 143.835 18.8594C143.835 19 143.861 19.1276 143.913 19.2422C143.97 19.3516 144.064 19.4531 144.194 19.5469C144.324 19.6354 144.502 19.7188 144.725 19.7969C144.955 19.875 145.241 19.9505 145.585 20.0234C146.231 20.1589 146.785 20.3333 147.249 20.5469C147.718 20.7552 148.077 21.026 148.327 21.3594C148.577 21.6875 148.702 22.1042 148.702 22.6094C148.702 22.9844 148.621 23.3281 148.46 23.6406C148.304 23.9479 148.074 24.2161 147.772 24.4453C147.47 24.6693 147.108 24.8438 146.686 24.9688C146.27 25.0938 145.801 25.1562 145.28 25.1562C144.515 25.1562 143.866 25.0208 143.335 24.75C142.804 24.474 142.4 24.1224 142.124 23.6953C141.853 23.263 141.718 22.8151 141.718 22.3516H143.538C143.559 22.7005 143.655 22.9792 143.827 23.1875C144.004 23.3906 144.223 23.5391 144.483 23.6328C144.749 23.7214 145.022 23.7656 145.304 23.7656C145.642 23.7656 145.926 23.7214 146.155 23.6328C146.384 23.5391 146.559 23.4141 146.679 23.2578C146.798 23.0964 146.858 22.9141 146.858 22.7109Z" fill="#7E7E82"/>
</svg>
